<svg xmlns="http://www.w3.org/2000/svg" id="Layer_2" data-name="Layer 2" viewBox="0 0 132.29 27.67"><defs><style>.cls-1,.cls-2{fill:#888;stroke-width:0}.cls-2{fill:#fbdc4a}</style></defs><g id="Layer_2-2" data-name="Layer 2"><path d="m31.65 5.59-4.81-.74L24.69.26c-.16-.34-.72-.34-.89 0l-2.15 4.59-4.81.74c-.4.06-.55.54-.27.82l3.5 3.58-.82 5.06c-.06.4.37.71.72.51l4.3-2.37 4.3 2.38c.35.19.78-.1.72-.51L28.47 10l3.5-3.58c.28-.29.12-.76-.27-.82l-.03-.02ZM52.46 5.59l-4.81-.74L45.5.26c-.16-.34-.72-.34-.89 0l-2.15 4.59-4.81.74c-.4.06-.55.54-.27.82l3.5 3.58-.82 5.06c-.06.4.37.71.72.51l4.3-2.37 4.3 2.38c.35.19.78-.1.72-.51L49.28 10l3.5-3.58c.28-.29.12-.76-.27-.82h-.03ZM73.26 5.59l-4.81-.74L66.3.26c-.16-.34-.72-.34-.89 0l-2.15 4.59-4.81.74c-.4.06-.55.54-.27.82l3.5 3.58-.82 5.06c-.06.4.37.71.72.51l4.3-2.37 4.3 2.38c.35.19.78-.1.72-.51L70.08 10l3.5-3.58c.28-.29.12-.76-.27-.82h-.03ZM94.07 5.59l-4.81-.74L87.11.26c-.16-.34-.72-.34-.89 0l-2.15 4.59-4.81.74c-.4.06-.55.54-.27.82l3.5 3.58-.82 5.06c-.06.4.37.71.72.51l4.3-2.37 4.3 2.38c.35.19.78-.1.72-.51L90.89 10l3.5-3.58c.28-.29.12-.76-.27-.82h-.03ZM114.88 5.59l-4.81-.74-2.15-4.59c-.16-.34-.72-.34-.89 0l-2.15 4.59-4.81.74c-.4.06-.55.54-.27.82l3.5 3.58-.82 5.06c-.06.4.37.71.72.51l4.3-2.37 4.3 2.38c.35.19.78-.1.72-.51L111.7 10l3.5-3.58c.28-.29.12-.76-.27-.82h-.03Z" class="cls-2"/><g><path d="m0 27.51 1.8-8.59h3.6q1.065 0 1.62.18c.555.18.66.34.86.67s.31.74.31 1.24q0 1.05-.69 1.74c-.69.69-1.2.76-2.21.9.31.23.55.46.71.68.36.5.65 1.03.87 1.56l.66 1.62H6.25l-.62-1.6c-.22-.58-.48-1.08-.76-1.5-.2-.29-.39-.49-.6-.58s-.53-.14-.99-.14H1.94l-.8 3.81H0Zm2.14-4.75h1.59c.73 0 1.21 0 1.44-.03.43-.04.79-.14 1.07-.29s.49-.36.64-.62.23-.54.23-.83c0-.25-.06-.47-.17-.65s-.26-.31-.45-.38-.5-.1-.94-.1h-2.8zM13.11 25.39l1.03.11c-.15.51-.49 1-1.02 1.46s-1.17.69-1.91.69c-.46 0-.88-.11-1.27-.32s-.68-.52-.88-.93-.3-.87-.3-1.39c0-.68.16-1.34.47-1.98s.72-1.11 1.22-1.42 1.04-.47 1.62-.47c.74 0 1.33.23 1.78.69s.67 1.09.67 1.89c0 .3-.03.62-.08.94H9.86c-.02.12-.02.23-.02.33 0 .58.13 1.03.4 1.33s.59.46.98.46c.36 0 .72-.12 1.07-.36s.62-.58.82-1.03m-3.08-1.54h3.49v-.23c0-.53-.13-.94-.4-1.22s-.61-.42-1.03-.42c-.45 0-.87.16-1.24.47s-.65.78-.83 1.41ZM19.44 26.73c-.37.32-.72.55-1.06.69s-.7.22-1.09.22c-.57 0-1.04-.17-1.39-.51s-.53-.77-.53-1.3c0-.35.08-.66.24-.92s.37-.48.63-.64.58-.28.96-.35c.24-.05.69-.08 1.36-.11s1.14-.1 1.43-.21q.12-.435.12-.72a.69.69 0 0 0-.27-.58c-.25-.2-.61-.29-1.08-.29s-.81.1-1.09.3-.49.48-.62.84l-1.07-.09c.22-.62.57-1.09 1.04-1.42s1.07-.49 1.8-.49c.77 0 1.38.18 1.83.55.34.27.52.63.52 1.07 0 .33-.05.72-.15 1.15l-.35 1.55c-.11.49-.16.89-.16 1.2 0 .2.04.48.13.84h-1.07c-.06-.2-.1-.46-.12-.77h-.01Zm.39-2.38c-.15.06-.31.1-.48.13s-.45.06-.85.1c-.62.05-1.05.12-1.31.21s-.45.22-.57.4-.19.39-.19.61c0 .3.1.54.31.73s.5.29.88.29c.35 0 .69-.09 1.01-.28s.58-.44.77-.78.33-.8.44-1.42h-.01ZM26.15 26.6c-.61.7-1.24 1.04-1.9 1.04-.59 0-1.08-.22-1.47-.65s-.59-1.07-.59-1.9c0-.76.16-1.45.47-2.08s.7-1.1 1.17-1.41.93-.47 1.4-.47c.77 0 1.36.37 1.75 1.12l.7-3.35h1.05l-1.79 8.59h-.98l.19-.9Zm-2.91-1.71c0 .43.04.78.13 1.03s.23.46.44.62.46.25.74.25c.48 0 .92-.25 1.31-.75.52-.66.79-1.48.79-2.46 0-.49-.13-.88-.39-1.15s-.58-.42-.97-.42c-.25 0-.49.06-.69.17s-.42.31-.62.58-.38.62-.52 1.03-.21.79-.21 1.1zM32.23 25.15c0-1.21.36-2.22 1.07-3.02.59-.66 1.36-.98 2.32-.98.75 0 1.35.23 1.81.7s.69 1.1.69 1.9c0 .71-.14 1.38-.43 2s-.7 1.09-1.23 1.42-1.09.49-1.68.49c-.48 0-.92-.1-1.32-.31s-.7-.5-.91-.88-.31-.82-.31-1.31Zm1.06-.11c0 .59.14 1.03.42 1.33s.64.45 1.07.45c.23 0 .45-.05.67-.14s.43-.23.62-.42.35-.4.49-.64.24-.5.33-.78q.18-.585.18-1.11c0-.56-.14-1-.42-1.31s-.64-.47-1.07-.47c-.33 0-.63.08-.91.24s-.52.39-.74.69-.38.66-.49 1.06-.16.76-.16 1.08v.02ZM43 26.38c-.75.84-1.51 1.27-2.29 1.27-.48 0-.87-.14-1.16-.41s-.44-.61-.44-1.01c0-.26.07-.71.2-1.35l.75-3.59h1.06l-.83 3.98c-.07.33-.11.59-.11.77 0 .23.07.42.21.55s.35.2.63.2c.3 0 .59-.07.87-.22s.53-.34.73-.59.37-.54.5-.87c.09-.21.19-.59.3-1.13l.56-2.69h1.06l-1.3 6.22h-.98l.23-1.12ZM45.46 27.51l1.3-6.22h.94l-.26 1.27c.32-.48.63-.84.94-1.07s.62-.35.94-.35c.21 0 .47.08.78.23l-.43.98c-.18-.13-.38-.2-.6-.2-.37 0-.75.21-1.14.62s-.7 1.16-.92 2.23l-.53 2.5h-1.02ZM53.3 25.05l1.08-.11v.28c0 .26.07.52.2.78s.31.46.53.6.46.21.71.21c.33 0 .66-.11 1-.34s.62-.56.83-.99.32-.86.32-1.29c0-.48-.14-.87-.42-1.15s-.66-.43-1.12-.43c-.31 0-.6.07-.88.22s-.53.37-.77.67l-.93-.06 1.29-4.39h4.2l-.21.97h-3.26l-.64 2.19c.24-.18.49-.31.75-.4s.52-.13.79-.13c.66 0 1.2.22 1.62.65s.63 1.03.63 1.78c0 .66-.14 1.27-.43 1.83s-.69.98-1.19 1.28-1.05.45-1.64.45c-.49 0-.93-.11-1.31-.33s-.66-.53-.85-.92-.28-.78-.28-1.17v-.2ZM59.73 24.93l.22-1.06h3.23l-.22 1.06h-3.24zM63.7 25.38l1.06-.06c0 .3.05.56.14.78s.27.39.52.53.55.21.88.21c.47 0 .82-.09 1.05-.28s.35-.41.35-.66c0-.18-.07-.36-.21-.52s-.5-.37-1.06-.61-.92-.41-1.08-.51c-.26-.16-.46-.35-.59-.57s-.2-.47-.2-.75c0-.49.2-.91.59-1.27s.94-.53 1.64-.53c.78 0 1.38.18 1.78.54s.62.84.64 1.43l-1.04.07c-.02-.38-.15-.67-.4-.89s-.6-.33-1.06-.33c-.37 0-.65.08-.86.25s-.3.35-.3.54.09.37.26.52c.12.1.42.26.91.47.81.35 1.32.63 1.54.83.34.32.5.72.5 1.18 0 .31-.09.61-.28.91s-.48.53-.87.71-.85.27-1.37.27c-.72 0-1.33-.18-1.83-.53s-.74-.93-.71-1.73M72.12 26.65l-.18.87c-.25.07-.5.1-.74.1-.42 0-.76-.1-1.01-.31-.19-.16-.28-.37-.28-.64 0-.14.05-.45.15-.94l.76-3.62h-.84l.17-.82h.84l.32-1.53 1.21-.73-.47 2.26h1.04l-.18.82h-1.04l-.72 3.44c-.09.44-.13.7-.13.79 0 .12.04.22.11.29s.19.1.35.1c.23 0 .44-.02.63-.07h.01ZM77.2 26.73c-.37.32-.72.55-1.06.69s-.7.22-1.09.22c-.57 0-1.04-.17-1.39-.51s-.53-.77-.53-1.3c0-.35.08-.66.24-.92s.37-.48.63-.64.58-.28.96-.35c.24-.05.69-.08 1.36-.11s1.14-.1 1.43-.21q.12-.435.12-.72a.69.69 0 0 0-.27-.58c-.25-.2-.61-.29-1.08-.29s-.81.1-1.09.3-.49.48-.62.84l-1.07-.09c.22-.62.57-1.09 1.04-1.42s1.07-.49 1.8-.49c.77 0 1.38.18 1.83.55.34.27.52.63.52 1.07 0 .33-.05.72-.15 1.15l-.35 1.55c-.11.49-.16.89-.16 1.2 0 .2.04.48.13.84h-1.07c-.06-.2-.1-.46-.12-.77h-.01Zm.39-2.38c-.15.06-.31.1-.48.13s-.45.06-.85.1c-.62.05-1.05.12-1.31.21s-.45.22-.57.4-.19.39-.19.61c0 .3.1.54.31.73s.5.29.88.29c.35 0 .69-.09 1.01-.28s.58-.44.77-.78.33-.8.44-1.42ZM79.72 27.51l1.3-6.22h.94l-.26 1.27c.32-.48.63-.84.94-1.07s.62-.35.94-.35c.21 0 .47.08.78.23l-.43.98c-.18-.13-.38-.2-.6-.2-.37 0-.75.21-1.14.62s-.7 1.16-.92 2.23l-.53 2.5h-1.02ZM87.28 27.51l1.8-8.59h3.6q1.065 0 1.62.18c.555.18.66.34.86.67s.31.74.31 1.24q0 1.05-.69 1.74c-.69.69-1.2.76-2.21.9.31.23.55.46.71.68.36.5.65 1.03.87 1.56l.66 1.62h-1.28l-.62-1.6c-.22-.58-.48-1.08-.76-1.5-.2-.29-.39-.49-.6-.58s-.53-.14-.99-.14h-1.34l-.8 3.81h-1.15Zm2.14-4.75h1.59c.73 0 1.21 0 1.44-.03.43-.04.79-.14 1.07-.29s.49-.36.64-.62.23-.54.23-.83c0-.25-.06-.47-.17-.65s-.26-.31-.45-.38-.5-.1-.94-.1h-2.8zM100.39 25.39l1.03.11c-.15.51-.49 1-1.02 1.46s-1.17.69-1.91.69c-.46 0-.88-.11-1.27-.32s-.68-.52-.88-.93-.3-.87-.3-1.39c0-.68.16-1.34.47-1.98s.72-1.11 1.22-1.42 1.04-.47 1.62-.47c.74 0 1.33.23 1.78.69s.67 1.09.67 1.89c0 .3-.03.62-.08.94h-4.58c-.02.12-.02.23-.02.33 0 .58.13 1.03.4 1.33s.59.46.98.46c.36 0 .72-.12 1.07-.36s.62-.58.82-1.03m-3.08-1.54h3.49v-.23c0-.53-.13-.94-.4-1.22s-.61-.42-1.03-.42c-.45 0-.87.16-1.24.47s-.65.78-.83 1.41h.01ZM104.1 27.51l-1.02-6.22h1.03l.53 3.43c.06.38.13.99.22 1.83.2-.44.46-.95.78-1.52l2.08-3.74h1.12l-3.56 6.22zM108.53 27.51l1.3-6.22h1.06l-1.3 6.22zm1.55-7.39.25-1.2h1.05l-.25 1.2zM115.84 25.39l1.03.11c-.15.51-.49 1-1.02 1.46s-1.17.69-1.91.69c-.46 0-.88-.11-1.27-.32s-.68-.52-.88-.93-.3-.87-.3-1.39c0-.68.16-1.34.47-1.98s.72-1.11 1.22-1.42 1.04-.47 1.62-.47c.74 0 1.33.23 1.78.69s.67 1.09.67 1.89c0 .3-.03.62-.08.94h-4.58c-.02.12-.02.23-.02.33 0 .58.13 1.03.4 1.33s.59.46.98.46c.36 0 .72-.12 1.07-.36s.62-.58.82-1.03m-3.08-1.54h3.49v-.23c0-.53-.13-.94-.4-1.22s-.61-.42-1.03-.42c-.45 0-.87.16-1.24.47s-.65.78-.83 1.41h.01ZM119.16 27.51l-.65-6.22h1.02l.28 2.79.11 1.57c0 .12.02.35.04.71.12-.4.22-.7.3-.92s.21-.52.39-.91l1.48-3.25h1.15l.21 3.11q.045.705.06 1.89c.2-.52.51-1.25.96-2.18l1.34-2.82h1.06l-3.04 6.22h-1.1l-.23-3.65c-.02-.23-.03-.67-.04-1.32q-.24.63-.57 1.35l-1.65 3.62h-1.12ZM126.78 25.38l1.06-.06c0 .3.05.56.14.78s.27.39.52.53.55.21.88.21c.47 0 .82-.09 1.05-.28s.35-.41.35-.66c0-.18-.07-.36-.21-.52s-.5-.37-1.06-.61-.92-.41-1.08-.51c-.26-.16-.46-.35-.59-.57s-.2-.47-.2-.75c0-.49.2-.91.59-1.27s.94-.53 1.64-.53c.78 0 1.38.18 1.78.54s.62.84.64 1.43l-1.04.07c-.02-.38-.15-.67-.4-.89s-.6-.33-1.06-.33c-.37 0-.65.08-.86.25s-.3.35-.3.54.09.37.26.52c.12.1.42.26.91.47.81.35 1.32.63 1.54.83.34.32.5.72.5 1.18 0 .31-.09.61-.28.91s-.48.53-.87.71-.85.27-1.37.27c-.72 0-1.33-.18-1.83-.53s-.74-.93-.71-1.73" class="cls-1"/></g></g></svg>