<svg xmlns="http://www.w3.org/2000/svg" id="Layer_2" viewBox="0 0 393.21 393.21"><defs><style>.cls-2{fill:#fff}.cls-3{fill:#96e092}</style></defs><g id="Layer_2-2" data-name="Layer_2"><path d="M384.69 217.8c.79-7.09 8.53-13.9 8.53-21.2s-7.73-14.11-8.53-21.2c-.81-7.24 5.23-15.58 3.63-22.56-1.61-7.09-10.67-11.99-13.03-18.76-2.4-6.85 1.61-16.33-1.51-22.8-3.14-6.52-13.06-9.28-16.9-15.37-3.85-6.12-2.06-16.26-6.55-21.88-4.51-5.65-14.79-6.14-19.89-11.24s-5.6-15.38-11.24-19.89c-5.63-4.5-15.77-2.7-21.88-6.55-6.09-3.83-8.85-13.75-15.37-16.9-6.47-3.12-15.95.88-22.8-1.51-6.77-2.37-11.68-11.42-18.77-13.03-6.97-1.58-15.31 4.44-22.56 3.63-7.09-.79-13.9-8.53-21.2-8.53s-14.11 7.73-21.2 8.53c-7.24.81-15.58-5.23-22.56-3.63-7.09 1.61-11.99 10.67-18.76 13.03-6.85 2.4-16.33-1.61-22.8 1.51-6.52 3.14-9.28 13.06-15.37 16.9-6.12 3.85-16.26 2.06-21.88 6.55-5.65 4.51-6.14 14.79-11.24 19.89s-15.39 5.6-19.89 11.24c-4.5 5.63-2.7 15.77-6.55 21.88-3.83 6.09-13.75 8.85-16.9 15.37-3.12 6.47.88 15.95-1.51 22.8-2.37 6.77-11.42 11.68-13.03 18.77-1.58 6.97 4.44 15.31 3.63 22.56-.79 7.09-8.53 13.9-8.53 21.2s7.73 14.11 8.53 21.2c.81 7.24-5.23 15.58-3.63 22.56 1.61 7.09 10.67 11.99 13.03 18.76 2.4 6.85-1.61 16.33 1.51 22.8 3.14 6.52 13.06 9.28 16.9 15.37 3.85 6.12 2.06 16.26 6.55 21.88 4.51 5.65 14.79 6.14 19.89 11.24s5.6 15.39 11.24 19.89c5.63 4.5 15.77 2.7 21.88 6.55 6.09 3.83 8.85 13.75 15.37 16.9 6.47 3.12 15.95-.88 22.8 1.51 6.77 2.37 11.68 11.42 18.77 13.03 6.97 1.58 15.31-4.44 22.56-3.63 7.09.79 13.9 8.53 21.2 8.53s14.11-7.73 21.2-8.53c7.24-.81 15.58 5.23 22.56 3.63 7.09-1.61 11.99-10.67 18.76-13.03 6.85-2.4 16.33 1.61 22.8-1.51 6.52-3.14 9.28-13.06 15.37-16.9 6.12-3.85 16.26-2.06 21.88-6.55 5.65-4.51 6.14-14.79 11.24-19.89s15.39-5.6 19.89-11.24c4.5-5.63 2.7-15.77 6.55-21.88 3.83-6.09 13.75-8.85 16.9-15.37 3.12-6.47-.88-15.95 1.51-22.8 2.37-6.77 11.42-11.68 13.03-18.77 1.58-6.97-4.44-15.31-3.63-22.56" style="fill:#184c3d"/><g><g><path d="m61.5 283.87 2.18-2.48-2.55-4.12-3.2.84-1.6-2.58 13.82-3.02 1.81 2.93-8.88 11.02-1.6-2.58Zm3.84-4.3c1.97-2.26 3.09-3.54 3.35-3.83s.47-.52.63-.67c-.77.24-2.7.76-5.8 1.56l1.82 2.95ZM73.68 300.41l-2.21-2.82 4.34-10.75-.05-.06c-1.33 1.19-2.29 2.01-2.88 2.48l-4.92 3.86-1.55-1.98 10.46-8.2 2.19 2.8-4.27 10.68.04.05c1.3-1.14 2.23-1.93 2.8-2.37l4.95-3.88 1.57 2-10.46 8.2ZM87.49 304.31l3.7 3.75-4.9 4.84c-.8-.41-1.5-.85-2.11-1.31q-.915-.69-1.74-1.53c-1.41-1.43-2.07-2.93-1.97-4.51s.93-3.15 2.5-4.7q2.295-2.265 4.86-2.22c1.72.03 3.34.82 4.87 2.37.96.97 1.69 2.1 2.19 3.38l-2.26.92a6.74 6.74 0 0 0-1.61-2.67c-.86-.87-1.83-1.27-2.93-1.22s-2.14.56-3.12 1.54c-1.03 1.01-1.6 2-1.73 2.95s.21 1.83 1 2.63c.41.42.88.8 1.39 1.15l1.97-1.95-1.77-1.79 1.67-1.65ZM97.08 322.96l-5.89-4.89 8.49-10.22 5.89 4.89-1.48 1.78-3.72-3.09-1.86 2.24 3.46 2.88-1.48 1.78-3.46-2.88-2.19 2.64 3.72 3.09-1.49 1.79ZM102.41 326.97l7.55-10.93 2.32 1.6-6.23 9.02 4.44 3.06-1.32 1.92-6.75-4.66ZM129.15 342.63l.52-3.26-4.35-2.13-2.25 2.42-2.73-1.33 10.07-9.93 3.1 1.51-1.63 14.05zm.95-5.68.78-5.03c.06-.39.12-.69.17-.91-.52.61-1.88 2.08-4.07 4.42l3.11 1.52ZM149.83 343.5c-.74 2.06-1.9 3.42-3.46 4.1-1.57.67-3.45.61-5.67-.19l-3.54-1.28 4.51-12.5 3.92 1.42q3.06 1.11 4.17 3.33c.74 1.48.76 3.19.07 5.12m-2.77-.92c.97-2.68.27-4.46-2.11-5.31l-1.41-.51-2.93 8.14 1.14.41c2.55.92 4.32 0 5.31-2.73M167.37 348.09c-.5 2.14-1.42 3.66-2.75 4.56s-2.99 1.12-4.97.65-3.37-1.4-4.16-2.8-.93-3.18-.43-5.33 1.42-3.67 2.76-4.56c1.33-.89 2.99-1.09 4.98-.63s3.37 1.4 4.16 2.79q1.17 2.085.42 5.31Zm-9.44-2.22c-.34 1.45-.32 2.6.06 3.46s1.11 1.42 2.2 1.68c2.19.51 3.62-.68 4.31-3.59.68-2.91-.06-4.63-2.24-5.14-1.09-.26-2-.08-2.73.52s-1.26 1.63-1.6 3.07M182.81 347.71c-.17 1.42-.75 2.45-1.73 3.09s-2.29.86-3.92.66l-1.2-.15-.58 4.69-2.8-.34 1.63-13.19 4.21.52c1.6.2 2.77.69 3.52 1.48s1.04 1.87.87 3.23Zm-6.57 1.31.92.11c.86.11 1.52.02 1.99-.27s.74-.76.82-1.41c.08-.66-.04-1.16-.36-1.52s-.86-.58-1.62-.68l-1.27-.16-.48 3.92ZM193.25 357.36l-2.82-.08.32-10.94-3.61-.1.07-2.34 10.03.29-.07 2.34-3.61-.1-.32 10.94ZM202.64 357.28l-.6-13.27 2.81-.13.6 13.28-2.81.13ZM223.74 348.48c.29 2.18-.02 3.93-.94 5.25s-2.39 2.11-4.41 2.39c-2.02.27-3.65-.1-4.89-1.13s-2.01-2.63-2.3-4.83c-.3-2.19.02-3.94.95-5.24s2.4-2.09 4.43-2.37c2.02-.27 3.65.1 4.88 1.12s1.99 2.62 2.29 4.81Zm-9.61 1.3q.3 2.205 1.29 3.21c.99 1.005 1.54.93 2.65.78 2.23-.3 3.14-1.93 2.74-4.89-.4-2.97-1.71-4.3-3.93-4-1.11.15-1.9.64-2.36 1.46s-.6 1.97-.4 3.44ZM242.79 350.77l-3.47.9-8.12-8.28-.08.02c.56 1.69.93 2.9 1.12 3.63l1.57 6.05-2.44.63-3.34-12.86 3.44-.89 8.09 8.18.06-.02q-.78-2.475-1.05-3.51l-1.58-6.09 2.46-.64 3.34 12.86ZM262.4 333.36c.58 1.31.61 2.49.1 3.54q-.765 1.575-3.03 2.58l-1.11.49 1.91 4.32-2.58 1.14-5.37-12.16 3.88-1.72c1.47-.65 2.74-.83 3.78-.53 1.05.29 1.85 1.07 2.41 2.33Zm-4.96 4.5.85-.37c.79-.35 1.32-.77 1.57-1.26s.25-1.03-.01-1.63c-.27-.6-.63-.98-1.09-1.12s-1.04-.06-1.74.25l-1.17.52zM278.97 334.76l-2.4-2.27-4.21 2.4.73 3.23-2.64 1.5-2.53-13.92 2.99-1.7 10.69 9.27-2.64 1.5Zm-4.15-3.99c-2.19-2.05-3.43-3.21-3.71-3.48s-.5-.49-.65-.66q.315 1.155 1.35 5.85zM285.66 324.33l2.96 4.15-2.29 1.64-7.73-10.81 3.15-2.25c1.47-1.05 2.75-1.56 3.83-1.53s2.02.59 2.8 1.68q.675.96.69 2.07c0 .75-.21 1.49-.65 2.23 3.36 1.27 5.55 2.08 6.55 2.44l-2.54 1.82-5.54-2.3-1.22.87Zm-1.33-1.87.74-.53c.72-.52 1.17-1.02 1.35-1.51s.07-.99-.3-1.51c-.37-.51-.8-.75-1.31-.72-.51.04-1.13.32-1.87.84l-.7.5 2.09 2.92ZM303.18 317l-2.12 1.85-7.19-8.25-2.72 2.37-1.54-1.77 7.57-6.59 1.54 1.77-2.72 2.37 7.19 8.25ZM318.33 301.82l-2.44 2.62-11.3-2.62-.06.06c1.38 1.13 2.34 1.95 2.9 2.46l4.58 4.26-1.71 1.84-9.73-9.05 2.42-2.6 11.22 2.56.04-.05c-1.33-1.11-2.25-1.91-2.77-2.4l-4.6-4.29 1.73-1.86 9.73 9.05ZM327.56 290l-4.61 6.11-10.61-8 4.61-6.11 1.84 1.39-2.91 3.86 2.33 1.76 2.71-3.59 1.84 1.39-2.71 3.59 2.74 2.06 2.91-3.86zM328.49 279.39l4.34 2.67-1.48 2.4-11.32-6.96 2.03-3.3c.95-1.54 1.92-2.5 2.94-2.9s2.09-.24 3.23.46c.67.41 1.15.96 1.44 1.64.29.69.38 1.45.26 2.31 3.59-.14 5.92-.24 6.98-.3l-1.64 2.66-6.01.03-.78 1.28Zm-1.96-1.2.48-.78c.47-.76.68-1.4.65-1.91s-.32-.94-.86-1.28c-.54-.33-1.03-.38-1.49-.15-.45.23-.92.73-1.39 1.51l-.45.73z" class="cls-3"/></g><g><path d="m72.08 119.69-3.22-.77-2.45 4.18 2.24 2.43-1.54 2.62-9.13-10.8 1.74-2.97 13.89 2.7-1.54 2.62Zm-5.6-1.38q-4.38-1.02-4.95-1.17c-.57-.15-.68-.17-.89-.24.57.57 1.93 2.03 4.09 4.4zM83.23 103.95l-2.15 2.86-11.51-1.43-.05.07c1.49.98 2.53 1.69 3.14 2.15l5 3.76-1.52 2.01-10.61-8 2.14-2.84 11.42 1.38.04-.05c-1.43-.97-2.44-1.67-3.01-2.1l-5.02-3.78 1.53-2.03 10.61 8ZM85.32 90.49l3.64-3.81 4.98 4.76c-.39.81-.8 1.53-1.24 2.15s-.93 1.22-1.48 1.79c-1.38 1.45-2.87 2.15-4.45 2.1s-3.17-.83-4.77-2.36c-1.55-1.48-2.34-3.08-2.36-4.79s.72-3.36 2.22-4.94c.94-.99 2.05-1.75 3.31-2.29l.98 2.23c-1.02.37-1.89.93-2.62 1.69-.84.88-1.22 1.87-1.13 2.96s.63 2.12 1.63 3.07c1.04 1 2.04 1.54 3 1.64s1.83-.26 2.6-1.08c.41-.43.77-.9 1.1-1.42l-2.01-1.91-1.74 1.82-1.7-1.62ZM104.58 82.78l-5.81 4.98-8.65-10.09 5.81-4.98 1.5 1.75-3.67 3.15 1.9 2.22 3.42-2.93 1.5 1.75-3.42 2.93 2.23 2.6 3.67-3.15 1.51 1.77ZM109.05 79.32l-7.7-10.83 2.3-1.63L110 75.8l4.39-3.12 1.35 1.9-6.69 4.75ZM134.14 64.22l-2.28-2.4-4.33 2.17.56 3.26-2.71 1.36-1.79-14.03 3.08-1.54 10.19 9.82-2.71 1.36Zm-3.94-4.2c-2.08-2.16-3.26-3.39-3.52-3.67s-.47-.52-.61-.69c.17.78.52 2.75 1.04 5.91l3.1-1.55ZM149.01 50.96c.76 2.05.75 3.84 0 5.36-.77 1.52-2.25 2.69-4.46 3.51l-3.53 1.3-4.61-12.46 3.91-1.45c2.03-.75 3.81-.8 5.34-.14 1.52.66 2.64 1.95 3.35 3.88m-2.72 1.08c-.99-2.68-2.67-3.58-5.03-2.71l-1.41.52 3 8.12 1.13-.42c2.55-.94 3.31-2.78 2.3-5.51ZM166.83 46.4c.52 2.14.38 3.91-.4 5.31s-2.17 2.34-4.15 2.82-3.64.27-4.97-.63-2.26-2.42-2.78-4.57-.38-3.92.41-5.31 2.18-2.32 4.16-2.8 3.64-.27 4.97.62 2.25 2.41 2.76 4.55Zm-9.43 2.27c.35 1.44.88 2.46 1.61 3.06.72.6 1.63.77 2.72.5 2.19-.53 2.93-2.24 2.23-5.15s-2.14-4.1-4.31-3.58c-1.09.26-1.82.83-2.2 1.69s-.39 2.02-.04 3.47ZM181.85 41.77c.18 1.42-.13 2.56-.92 3.42s-2 1.4-3.64 1.61l-1.2.15.59 4.69-2.8.35-1.67-13.18 4.21-.53q2.4-.3 3.78.57c.92.58 1.47 1.56 1.64 2.92Zm-6.05 2.89.92-.12c.86-.11 1.48-.36 1.87-.75.38-.39.53-.92.45-1.56-.08-.65-.32-1.12-.72-1.38-.4-.27-.98-.35-1.74-.26l-1.27.16.5 3.91ZM193.47 50.32l-2.82.09-.33-10.94-3.61.11-.07-2.34 10.03-.31.07 2.34-3.61.11.33 10.94ZM202.05 50.39l.61-13.27 2.81.13-.61 13.27zM223.96 45.94q-.45 3.27-2.31 4.8c-1.24 1.02-2.87 1.39-4.89 1.12s-3.49-1.08-4.4-2.4c-.92-1.32-1.23-3.07-.92-5.27.3-2.19 1.07-3.79 2.32-4.8 1.24-1.01 2.88-1.37 4.9-1.09s3.49 1.07 4.4 2.39c.91 1.31 1.22 3.06.91 5.25Zm-9.61-1.32c-.2 1.47-.08 2.62.38 3.44s1.24 1.31 2.35 1.46c2.23.31 3.54-1.02 3.95-3.98.41-2.97-.49-4.6-2.71-4.91-1.11-.15-2 .1-2.67.77s-1.1 1.74-1.31 3.21ZM239.85 56.67l-3.46-.92-3.01-11.2-.08-.02c-.34 1.75-.61 2.98-.81 3.72l-1.6 6.05-2.43-.64 3.4-12.85 3.44.91 3.03 11.1.06.02c.35-1.69.62-2.88.81-3.58l1.61-6.08 2.45.65-3.4 12.85ZM265.12 56.94c-.59 1.3-1.45 2.12-2.57 2.44-1.13.32-2.44.14-3.94-.53l-1.1-.5-1.95 4.31-2.57-1.16 5.47-12.11 3.87 1.75c1.47.66 2.44 1.48 2.92 2.46s.44 2.09-.13 3.35Zm-6.67-.7.84.38q1.185.54 1.98.33c.53-.13.93-.5 1.2-1.1s.31-1.12.11-1.56-.65-.81-1.35-1.13l-1.17-.53-1.62 3.59ZM273.12 71.83l.76-3.22-4.19-2.44-2.43 2.25-2.62-1.53 10.77-9.16 2.98 1.74-2.65 13.9-2.62-1.53Zm1.37-5.6c.67-2.92 1.06-4.58 1.15-4.96s.17-.68.24-.89c-.56.57-2.02 1.94-4.38 4.1l2.99 1.74ZM284.74 73.48l-3.02 4.11-2.27-1.67 7.86-10.71 3.12 2.29c1.46 1.07 2.34 2.12 2.65 3.17q.465 1.56-.72 3.18c-.46.63-1.05 1.06-1.75 1.3-.71.24-1.48.26-2.32.07-.15 3.59-.25 5.92-.27 6.98l-2.52-1.85.46-5.99-1.21-.89Zm1.36-1.85.73.54c.72.53 1.34.8 1.85.81.52.01.96-.24 1.34-.75q.555-.765.27-1.47c-.19-.47-.65-.98-1.39-1.51l-.69-.51-2.12 2.9ZM295.27 88.57l-2.1-1.88 7.3-8.15-2.69-2.41 1.57-1.75 7.47 6.7-1.57 1.75-2.69-2.41-7.3 8.15ZM309.34 103.17l-2.4-2.66 3.61-11.02-.05-.06c-1.24 1.27-2.15 2.16-2.71 2.67l-4.65 4.18-1.68-1.87 9.88-8.89 2.38 2.64-3.54 10.95.04.05c1.22-1.22 2.1-2.07 2.63-2.55l4.68-4.21 1.7 1.89-9.88 8.89ZM317.61 114.24l-4.49-6.2 10.76-7.79 4.49 6.2-1.87 1.35-2.83-3.92-2.36 1.71 2.64 3.64-1.87 1.35-2.64-3.64-2.78 2.01 2.84 3.92-1.88 1.36ZM326.52 118.8l-4.4 2.58-1.42-2.43 11.47-6.71 1.96 3.34q1.365 2.34 1.17 3.96c-.13 1.08-.77 1.96-1.93 2.63-.67.4-1.38.56-2.13.5-.74-.06-1.46-.35-2.16-.85-1.57 3.23-2.58 5.33-3.02 6.3l-1.58-2.7 2.8-5.31-.76-1.29Zm1.98-1.16.46.78c.45.77.91 1.26 1.38 1.48s.98.16 1.53-.16c.54-.32.82-.73.83-1.24s-.21-1.15-.67-1.94l-.43-.74-3.1 1.81Z" class="cls-3"/></g></g><g><path d="M253.29 129.79s-20.2-13.07-37.94-7.26c-5.95 1.95-10.85 5.76-14.76 9.98-2.19 2.37-4.72 7.79-12.31 10.73-1.67.65-3.54 1.32-5.9 1.62-3.43.43-5.68 1.25-8.55 1.98-1.2.31-3.56 1-3.72-.51-.11-1 .95-1.27 1.87-1.54 1.95-.57 3.34-1.05 5.24-1.71.66-.23 2.4-.51 2.19-1.21-.14-.47-1.28-.19-1.82-.08-3.37.65-6.43 1.23-9.83 1.76-1.37.22-3.05.47-3.28-.74-.35-1.79 1.9-1.83 3.45-2.1 2.86-.5 5.13-.99 7.88-1.54.44-.08 1.04-.1 1.22-.58-.49-.34-1.22-.12-1.82-.03-3.7.54-7.6 1.11-11.19 1.86-1.2.25-2.42.35-2.68-.73-.44-1.84 1.94-2.13 3.47-2.51 3.26-.79 5.99-1.05 9.64-1.65.5-.09 1.63-.2 1.62-.62 0-.58-1.76-.4-2.35-.4-2.66 0-4.61.21-7.55.5-1.6.16-3.64.68-3.84-.76-.3-2.23 4.11-2 6.02-2.22 3.63-.42 7.09-.55 10.41-1.4 1.53-.39 3.57-.9 3.71-1.96.14-1.1-1.38-2.32-1.89-2.65-.82-.53-1.85-.9-2.68-1.54-.82-.63-1.68-1.37-2.11-2.18-.47-.89-.64-2.96.7-3.03.53-.03 1.75 1.01 2.16 1.27.77.5 1.47.87 2.11 1.32 1.18.84 1.96 1.79 3.14 2.37.88.43 1.76.75 2.61 1.19.83.43 1.66.86 2.47 1.35.84.51 1.62 1.69 2.74 2.28 6.19 3.25 9.46-2.84 7.96-3.62-7.74-4.02-20.48-9.3-28.02-8.54-18.57 1.88-31.73 22.02-31.73 22.02s16.94 17.09 35.5 15.21c9.56-.97 17.68-6.78 23.32-12.19-.15-.17 5.26-6.57 11.8-8.87 3.26-1.15 5.28-2.44 7.93-3.77 1.1-.56 3.26-1.73 3.74-.3.32.95-.66 1.45-1.49 1.9-1.78.97-3.04 1.74-4.76 2.79-.59.37-2.24 1.01-1.88 1.65.24.43 1.29-.09 1.8-.31 3.15-1.36 6.02-2.58 9.23-3.83 1.3-.51 2.87-1.11 3.36.02.73 1.67-1.46 2.19-2.92 2.79-2.69 1.1-4.79 2.07-7.37 3.19-.41.18-.99.32-1.07.83.55.22 1.21-.14 1.79-.36 3.5-1.32 7.18-2.71 10.53-4.21 1.11-.49 2.29-.86 2.77.15.82 1.7-1.44 2.5-2.86 3.19-3.01 1.47-5.63 2.3-9.06 3.68-.47.19-1.54.54-1.46.95.12.57 1.8.01 2.38-.11 2.6-.57 4.46-1.19 7.26-2.1 1.53-.5 3.42-1.44 3.91-.09.77 2.11-3.58 2.83-5.4 3.45-3.46 1.19-6.81 2.06-9.87 3.6-1.41.71-3.29 1.64-3.2 2.71.1 1.1 1.85 1.98 2.41 2.19.92.34 2 .48 2.95.93.94.44 1.94.97 2.53 1.68.65.77 1.25 2.75-.04 3.11-.51.14-1.93-.61-2.38-.78-.87-.33-1.63-.54-2.35-.84-1.33-.57-2.3-1.33-3.57-1.64-.95-.23-1.87-.35-2.8-.61-.9-.25-1.8-.49-2.7-.79-.93-.32-2.16-.88-3.16-1.64-.35-.26-1.02-.75-1.78-.54-4.99.12-9.91 2.85-12.69 7.65-2.72 4.69-2.73 10.16-.52 14.5-.47-3.28.14-6.78 1.97-9.93 1.74-3 4.3-5.19 7.2-6.45 7.49 2.96 18.12 5.59 28.01 2.35 17.73-5.81 26.29-28.3 26.29-28.3Z" style="fill-rule:evenodd;fill:#fff"/><g><path d="m50.38 188.53-3.59 4.13c.8-.28 1.52-.68 2.18-1.2s1.18-.95 1.55-1.29c.38-.34 1.11-.65 2.18-.93 1.08-.28 2.49-.42 4.25-.42 1.59 0 3.13.16 4.6.48s2.93.88 4.36 1.67c1.44.8 2.68 1.79 3.74 2.99s1.9 2.74 2.54 4.63.96 4.04.96 6.43c0 6.18-1.34 10.59-4.01 13.24s-7.08 3.98-13.21 3.98c-1.95 0-3.71-.1-5.26-.3s-2.79-.42-3.71-.66-1.75-.57-2.51-.99-1.28-.76-1.55-1.02q-.42-.39-.93-1.02a21 21 0 0 0-.57-.69v-35.28c0-1.59.19-2.81.57-3.65s.91-1.36 1.58-1.58c.68-.22 1.38-.33 2.12-.33s1.55-.06 2.45-.18 1.64-.4 2.24-.84v12.8Zm0 17.1q-.06 7.89 0 7.89h.06q.48.12 1.05.24c.38.08 1.05.17 2 .27.96.1 1.84.12 2.66.06s1.73-.24 2.75-.54 1.87-.75 2.57-1.35 1.29-1.45 1.76-2.57c.48-1.12.72-2.43.72-3.95 0-1.59-.2-2.98-.6-4.16s-.92-2.09-1.55-2.75c-.64-.66-1.4-1.19-2.27-1.58-.88-.4-1.72-.64-2.54-.72s-1.68-.09-2.6-.03-1.68.15-2.3.27-1.19.26-1.7.42v8.49ZM88.03 210.35c0 1.24.62 2.16 1.85 2.78 1.24.62 2.8.94 4.69.96s3.75-.06 5.56-.24 3.53-.39 5.14-.63 2.54-.36 2.78-.36c.16 3.47-.53 5.92-2.06 7.35s-4.61 2.15-9.24 2.15c-6.38 0-11.06-1.29-14.05-3.89-2.99-2.59-4.48-7.07-4.48-13.45q0-4.785 1.23-8.1c.82-2.21 2.01-3.9 3.59-5.05 1.57-1.16 3.33-1.97 5.26-2.45s4.19-.72 6.79-.72c4.94 0 8.58 1.05 10.91 3.14s3.5 5.43 3.5 10.02c0 1.75-.34 3.16-1.02 4.22s-1.57 1.76-2.66 2.12c-1.1.36-2.41.62-3.95.78-1.53.16-3.05.21-4.54.15s-3.11.01-4.84.21-3.22.54-4.45 1.02Zm-.3-6.27c.68-.48 1.78-.8 3.32-.96 1.53-.16 2.97-.25 4.3-.27s2.52-.3 3.56-.84 1.53-1.38 1.5-2.54c0-1.04-.82-1.89-2.45-2.57-2.27-.96-4.48-1.04-6.64-.24-2.99 1.08-4.19 3.55-3.59 7.41ZM133.57 214.06c.56 1.75.64 3.37.24 4.84-.4 1.48-1.08 2.45-2.03 2.93-2.07.64-4.1.83-6.07.57s-3.73-.81-5.26-1.64c-1.53-.84-2.78-2.05-3.74-3.65-.96-1.59-1.43-3.41-1.43-5.44v-25.71c-.04-1.24.16-2.26.6-3.08s1.1-1.4 1.97-1.76c.88-.36 1.81-.59 2.81-.69s2.19-.11 3.59-.03v8.67h10.28v.45q0 .27-.12 1.11c-.08.56-.2 1.1-.36 1.61-.16.52-.43 1.09-.81 1.7-.38.62-.83 1.15-1.35 1.58-.52.44-1.22.81-2.09 1.11-.88.3-1.85.45-2.93.45-.96 0-1.83.02-2.63.06l.06 13.81c-.04 1.08.18 1.9.66 2.48s1.13.92 1.94 1.02c.82.1 1.63.12 2.45.06s1.65-.15 2.51-.27 1.43-.18 1.7-.18ZM158.01 214.06c.56 1.75.64 3.37.24 4.84-.4 1.48-1.08 2.45-2.03 2.93-2.07.64-4.1.83-6.07.57s-3.73-.81-5.26-1.64c-1.53-.84-2.78-2.05-3.74-3.65-.96-1.59-1.43-3.41-1.43-5.44v-25.71c-.04-1.24.16-2.26.6-3.08s1.1-1.4 1.97-1.76c.88-.36 1.81-.59 2.81-.69s2.19-.11 3.59-.03v8.67h10.28v.45q0 .27-.12 1.11c-.08.56-.2 1.1-.36 1.61-.16.52-.43 1.09-.81 1.7-.38.62-.83 1.15-1.35 1.58-.52.44-1.22.81-2.09 1.11-.88.3-1.85.45-2.93.45-.96 0-1.83.02-2.63.06l.06 13.81c-.04 1.08.18 1.9.66 2.48s1.13.92 1.94 1.02c.82.1 1.63.12 2.45.06s1.65-.15 2.51-.27 1.43-.18 1.7-.18ZM172.54 210.35c0 1.24.62 2.16 1.85 2.78 1.24.62 2.8.94 4.69.96s3.75-.06 5.56-.24 3.53-.39 5.14-.63c1.62-.24 2.54-.36 2.78-.36.16 3.47-.53 5.92-2.06 7.35s-4.61 2.15-9.24 2.15c-6.38 0-11.06-1.29-14.05-3.89-2.99-2.59-4.48-7.07-4.48-13.45q0-4.785 1.23-8.1c.82-2.21 2.01-3.9 3.59-5.05 1.57-1.16 3.33-1.97 5.26-2.45s4.19-.72 6.79-.72c4.94 0 8.58 1.05 10.91 3.14s3.5 5.43 3.5 10.02c0 1.75-.34 3.16-1.02 4.22s-1.56 1.76-2.66 2.12-2.41.62-3.95.78c-1.53.16-3.05.21-4.54.15s-3.11.01-4.84.21-3.22.54-4.45 1.02Zm-.3-6.27c.68-.48 1.78-.8 3.32-.96 1.53-.16 2.97-.25 4.3-.27s2.52-.3 3.56-.84 1.53-1.38 1.49-2.54c0-1.04-.82-1.89-2.45-2.57-2.27-.96-4.48-1.04-6.64-.24-2.99 1.08-4.19 3.55-3.59 7.41ZM222.39 188.65q-.06.12.03 1.26c.06.76.05 1.49-.03 2.18-.08.7-.24 1.45-.48 2.24-.24.8-.73 1.43-1.47 1.91s-1.68.72-2.84.72c-1.67 0-2.97.06-3.89.18s-1.73.42-2.45.9-1.2 1.16-1.44 2.03c-.24.88-.36 2.07-.36 3.59v19.13c-.72-.52-1.66-.93-2.84-1.23s-2.17-.53-2.99-.69-1.54-.63-2.18-1.41-.96-1.9-.96-3.38v-16.02c0-.24 0-.57.03-.99.02-.42.09-1 .21-1.73.12-.74.32-1.47.6-2.21s.7-1.5 1.26-2.3 1.23-1.49 2.03-2.09 1.82-1.1 3.08-1.49c1.26-.4 2.66-.6 4.22-.6h10.46ZM237.93 189.79q2.925-1.2 9.81-1.2c2.23 0 4.15.38 5.74 1.14s2.75 1.62 3.47 2.6 1.26 2.09 1.64 3.35.59 2.19.63 2.81.04 1.15 0 1.58v21.76c-5.98.8-8.97-1.06-8.97-5.56v-6.58c.04-5.94-.24-9.56-.84-10.85-.6-1.3-2.47-1.98-5.62-2.06-1.95 0-3.91.36-5.86 1.08v18.42c.08 2.39-.67 3.96-2.24 4.69-1.58.74-3.82 1.03-6.73.87V175.2c.72.52 1.66.83 2.84.93s2.17.15 2.99.15 1.54.43 2.18 1.29.96 2.26.96 4.22v8.01ZM275.71 210.35c0 1.24.62 2.16 1.85 2.78s2.8.94 4.69.96 3.75-.06 5.56-.24 3.53-.39 5.14-.63 2.54-.36 2.78-.36c.16 3.47-.53 5.92-2.06 7.35s-4.61 2.15-9.24 2.15c-6.38 0-11.06-1.29-14.05-3.89-2.99-2.59-4.48-7.07-4.48-13.45q0-4.785 1.23-8.1c.82-2.21 2.01-3.9 3.59-5.05 1.57-1.16 3.33-1.97 5.26-2.45s4.19-.72 6.79-.72c4.94 0 8.58 1.05 10.91 3.14s3.5 5.43 3.5 10.02c0 1.75-.34 3.16-1.02 4.22s-1.57 1.76-2.66 2.12c-1.1.36-2.41.62-3.95.78s-3.05.21-4.54.15-3.11.01-4.84.21-3.22.54-4.45 1.02Zm-.3-6.27c.68-.48 1.78-.8 3.32-.96 1.53-.16 2.97-.25 4.31-.27 1.33-.02 2.52-.3 3.56-.84s1.53-1.38 1.49-2.54c0-1.04-.82-1.89-2.45-2.57-2.27-.96-4.48-1.04-6.64-.24-2.99 1.08-4.19 3.55-3.59 7.41ZM312.95 216.27c.08 2.39-.67 3.96-2.24 4.69-1.58.74-3.82 1.03-6.73.87v-46.64c.72.52 1.66.83 2.84.93s2.17.15 2.99.15 1.54.43 2.18 1.29.96 2.26.96 4.22v34.5ZM329.02 235.05c-.72-.52-1.66-.83-2.84-.93s-2.17-.15-2.99-.15-1.54-.43-2.18-1.29-.96-2.26-.96-4.21v-35.28s.23-.27.57-.69q.51-.63.93-.99c.28-.24.8-.58 1.55-1.02.76-.44 1.59-.78 2.51-1.02s2.15-.46 3.71-.66 3.31-.3 5.26-.3c6.14 0 10.54 1.33 13.21 3.98s4.01 7.07 4.01 13.24c0 2.99-.48 5.58-1.43 7.77-.96 2.19-2.24 3.88-3.86 5.05a16.8 16.8 0 0 1-5.14 2.57c-1.81.54-3.74.81-5.77.81-2.75 0-4.94-.28-6.58-.84v13.93Zm0-29.9v8.49c.64.2 1.33.36 2.06.48.74.12 1.66.22 2.78.3s2.15-.04 3.11-.36 1.87-.78 2.75-1.38 1.57-1.55 2.09-2.87.78-2.89.78-4.72c0-1.51-.25-2.83-.75-3.95s-1.08-1.97-1.73-2.57c-.66-.6-1.53-1.05-2.6-1.35-1.08-.3-1.97-.48-2.69-.54s-1.61-.03-2.69.09-1.73.2-1.97.24q-.36.06-1.08.24h-.06s-.04 2.63 0 7.89Z" class="cls-2"/></g></g></g></svg>