<svg width="18" height="14" viewBox="0 0 18 14" fill="none" xmlns="http://www.w3.org/2000/svg">
<path opacity="0.77" d="M16.3125 0.5C17.2266 0.5 18 1.27344 18 2.1875V12.3125C18 13.2617 17.2266 14 16.3125 14H1.6875C0.738281 14 0 13.2617 0 12.3125V2.1875C0 1.27344 0.738281 0.5 1.6875 0.5H16.3125ZM16.3125 2.1875H1.6875V3.62891C2.46094 4.29688 3.72656 5.28125 6.39844 7.39062C6.99609 7.84766 8.15625 8.97266 9 8.9375C9.80859 8.97266 10.9688 7.84766 11.5664 7.39062C14.2383 5.28125 15.5039 4.29688 16.3125 3.62891V2.1875ZM1.6875 12.3125H16.3125V5.80859C15.5039 6.44141 14.3438 7.35547 12.6211 8.72656C11.8125 9.32422 10.4766 10.6602 9 10.625C7.48828 10.6602 6.11719 9.32422 5.34375 8.72656C3.62109 7.35547 2.46094 6.44141 1.6875 5.80859V12.3125Z" fill="#2C3542"/>
</svg>
