<?xml version="1.0" encoding="UTF-8"?>
<svg id="Layer_2" data-name="Layer 2" xmlns="http://www.w3.org/2000/svg" viewBox="0 0 546.59 526.75">
  <defs>
    <style>
      .cls-1 {
        fill: #df4c93;
      }

      .cls-1, .cls-2 {
        stroke-width: 0px;
      }

      .cls-2 {
        fill: #fff;
      }
    </style>
  </defs>
  <g id="Layer_1-2" data-name="Layer 1">
    <g>
      <circle class="cls-1" cx="273.29" cy="263.38" r="257.41"/>
      <g>
        <g>
          <g>
            <path class="cls-2" d="M101.66,371.43l5.28,8.69-10.85,6.59c-2.24-1.87-4.22-4.22-5.94-7.05-1.88-3.1-2.44-6.05-1.67-8.84.77-2.79,2.82-5.19,6.16-7.21,3.25-1.97,6.34-2.58,9.28-1.82,2.93.76,5.42,2.81,7.45,6.15.77,1.27,1.38,2.54,1.82,3.81.44,1.27.74,2.43.88,3.49l-5.31.87c-.17-1.89-.77-3.7-1.83-5.43-.96-1.59-2.23-2.5-3.79-2.74-1.56-.24-3.3.22-5.22,1.39-1.88,1.14-3.08,2.41-3.59,3.79-.51,1.38-.32,2.82.58,4.29.49.81,1.02,1.5,1.59,2.09l3.15-1.91-2.18-3.6,4.2-2.55Z"/>
            <path class="cls-2" d="M113.74,397.59l-6.58,5.5-4.08-4.88,18.07-15.11,4.95,5.92c4.11,4.91,4.38,8.86.82,11.83-2.09,1.75-4.57,2.08-7.42,1l-3.47,11.85-4.63-5.54,3.37-9.33-1.03-1.24ZM117.41,394.52l.76.91c1.43,1.71,2.89,1.93,4.4.67,1.24-1.04,1.17-2.4-.23-4.07l-.81-.96-4.13,3.45Z"/>
            <path class="cls-2" d="M148.05,427.07c-2.61,2.98-5.33,4.61-8.15,4.88s-5.64-.83-8.46-3.3c-2.78-2.44-4.23-5.08-4.34-7.94-.12-2.86,1.13-5.78,3.75-8.76,2.58-2.95,5.29-4.55,8.13-4.82,2.84-.26,5.66.84,8.47,3.3,2.82,2.47,4.28,5.12,4.38,7.93s-1.16,5.72-3.78,8.71ZM135.86,416.39c-3,3.43-3.31,6.18-.93,8.27,1.21,1.06,2.48,1.43,3.79,1.11,1.31-.32,2.74-1.36,4.29-3.12,1.55-1.77,2.4-3.34,2.55-4.7.15-1.36-.37-2.56-1.55-3.6-2.4-2.1-5.11-1.43-8.14,2.03Z"/>
            <path class="cls-2" d="M172.93,457.07l-6.48-3.83,3.28-9.98c.13-.42.42-1.25.87-2.46.45-1.22.85-2.22,1.19-3.02-.43.56-.99,1.23-1.68,2.03s-1.34,1.52-1.95,2.17-3.07,3.29-7.4,7.91l-6.48-3.83,6.97-23.25,5.28,3.12-3.81,11.47c-.83,2.54-1.54,4.53-2.15,5.97.68-.87,1.65-2.03,2.92-3.46,1.27-1.44,2.35-2.6,3.25-3.51l6.32-6.61,5.08,3-2.8,8.7c-.43,1.4-.97,3-1.62,4.79-.65,1.79-1.15,3.11-1.52,3.97.73-.96,2.11-2.54,4.14-4.76l8.27-8.87,5.28,3.12-16.98,17.33Z"/>
            <path class="cls-2" d="M188.86,464.31l8.84-21.84,5.93,2.4-8.84,21.84-5.93-2.4Z"/>
            <path class="cls-2" d="M229.17,477.04l-8.08-2.08-4.19-18.22-.14-.04c-.45,2.58-.85,4.53-1.19,5.87l-2.65,10.28-5.46-1.41,5.87-22.81,8.05,2.07,4.22,17.99.09.02c.45-2.34.85-4.2,1.21-5.6l2.66-10.31,5.49,1.41-5.88,22.81Z"/>
            <path class="cls-2" d="M253.62,466.35l10.13.89-1.11,12.65c-2.83.7-5.9.91-9.19.62-3.62-.32-6.32-1.61-8.11-3.88-1.79-2.27-2.52-5.35-2.18-9.23.33-3.79,1.67-6.64,4.02-8.56,2.35-1.92,5.47-2.71,9.36-2.37,1.48.13,2.86.39,4.15.78,1.29.39,2.4.85,3.33,1.36l-2.44,4.8c-1.62-.98-3.44-1.56-5.46-1.74-1.85-.16-3.34.31-4.45,1.43-1.12,1.12-1.77,2.79-1.97,5.03-.19,2.19.12,3.91.93,5.14.81,1.23,2.08,1.92,3.81,2.07.94.08,1.82.07,2.62-.05l.32-3.68-4.19-.37.43-4.9Z"/>
            <path class="cls-2" d="M298.23,479.23l-6.22.79-2.97-23.37,13.81-1.75.64,5.07-7.59.96.57,4.46,7-.89.64,5.07-7,.89,1.12,8.78Z"/>
            <path class="cls-2" d="M331.97,472.19l-2.28-3.96-7.39,2.01v4.57s-6.74,1.84-6.74,1.84l1.21-24.84,8.19-2.23,13.72,20.78-6.72,1.83ZM327.04,463.54l-2-3.46c-.45-.77-1.02-1.76-1.71-2.99s-1.16-2.11-1.42-2.65c.05.55.1,1.48.16,2.76.06,1.29.1,3.84.12,7.67l4.84-1.32Z"/>
            <path class="cls-2" d="M358.88,462.09l-11.6-13.29-.13.06c1.44,2.52,2.5,4.5,3.18,5.95l4.37,9.25-5.1,2.41-10.06-21.3,7.67-3.62,11.58,13.03.12-.06-2.78-17.18,7.68-3.62,10.06,21.3-5.29,2.5-4.41-9.34c-.23-.49-.48-1.03-.74-1.63-.27-.6-.89-2.08-1.86-4.45l-.13.06,2.93,17.34-5.48,2.59Z"/>
            <path class="cls-2" d="M385.4,447.68l-12.99-19.65,5.34-3.53,12.99,19.65-5.34,3.53Z"/>
            <path class="cls-2" d="M401.46,436.44l-15.07-18.1,4.89-4.07,11.78,14.15,6.97-5.8,3.29,3.95-11.86,9.88Z"/>
            <path class="cls-2" d="M421.82,418.28l-16.97-16.34,4.44-4.61,16.97,16.34-4.44,4.61Z"/>
            <path class="cls-2" d="M443.55,392.8l-8.57,11.05-18.62-14.43,8.57-11.05,4.04,3.13-4.67,6.02,2.93,2.27,4.32-5.58,4.04,3.13-4.32,5.58,3.51,2.73,4.67-6.02,4.1,3.18Z"/>
            <path class="cls-2" d="M452.19,365.56c1.26.74,2.19,1.72,2.79,2.93.6,1.21.82,2.58.65,4.1s-.73,3.09-1.68,4.71c-.8,1.35-1.56,2.43-2.29,3.23-.73.8-1.62,1.56-2.68,2.27l-4.89-2.88c1.15-.73,2.21-1.57,3.18-2.52.97-.95,1.73-1.9,2.28-2.84.48-.81.69-1.49.63-2.04s-.31-.95-.75-1.21c-.28-.16-.57-.23-.86-.2-.3.03-.65.15-1.07.36-.41.21-1.38.86-2.9,1.93-1.38.97-2.55,1.62-3.5,1.95-.95.33-1.89.44-2.81.33s-1.88-.46-2.88-1.05c-1.87-1.1-2.93-2.64-3.17-4.62-.24-1.98.34-4.15,1.74-6.53,1.24-2.1,2.99-3.96,5.25-5.57l3.24,4.18c-1.99,1.38-3.39,2.77-4.2,4.14-.42.71-.6,1.3-.54,1.78.06.47.27.82.64,1.03.4.23.88.24,1.43.01.56-.23,1.79-1.01,3.7-2.34,1.82-1.28,3.38-2,4.68-2.15,1.3-.15,2.64.18,4.01.99Z"/>
          </g>
          <g>
            <path class="cls-2" d="M119.41,138.58l-4.13-1.93-4.9,5.88,2.63,3.74-4.48,5.37-13.25-21.05,5.43-6.52,23.16,9.16-4.46,5.35ZM110.42,134.32l-3.62-1.7c-.81-.37-1.85-.86-3.11-1.47s-2.16-1.07-2.68-1.36c.36.43.93,1.15,1.71,2.17.78,1.02,2.28,3.09,4.5,6.21l3.21-3.85Z"/>
            <path class="cls-2" d="M146.51,112.55l-6.27,5.51-17.42-6.78-.11.1c1.88,1.83,3.27,3.25,4.18,4.29l7.01,7.98-4.24,3.72-15.55-17.69,6.24-5.49,17.25,6.64.07-.06c-1.68-1.68-3-3.07-3.95-4.15l-7.03-8,4.26-3.75,15.55,17.69Z"/>
            <path class="cls-2" d="M155.81,89.47l8.59-5.44,6.79,10.73c-1.83,2.28-4.14,4.3-6.93,6.07-3.07,1.94-6,2.56-8.8,1.84s-5.25-2.72-7.33-6.02c-2.04-3.21-2.7-6.29-2-9.24.7-2.95,2.7-5.47,6.01-7.56,1.25-.79,2.51-1.42,3.77-1.89,1.26-.47,2.42-.78,3.48-.94l.97,5.3c-1.88.2-3.68.84-5.4,1.93-1.57.99-2.46,2.27-2.67,3.84s.29,3.29,1.49,5.19c1.18,1.86,2.46,3.03,3.86,3.52s2.82.26,4.28-.66c.8-.51,1.48-1.05,2.06-1.63l-1.97-3.12-3.55,2.25-2.63-4.15Z"/>
            <path class="cls-2" d="M193.93,84.99l-12.71,5.83-9.82-21.41,12.71-5.83,2.13,4.64-6.93,3.18,1.54,3.37,6.42-2.94,2.13,4.64-6.42,2.94,1.85,4.04,6.93-3.18,2.16,4.72Z"/>
            <path class="cls-2" d="M203.25,81.42l-7.13-22.45,6.07-1.93,5.57,17.55,8.65-2.75,1.56,4.9-14.71,4.67Z"/>
            <path class="cls-2" d="M256.09,70.35l-1.58-4.28-7.62.75-.76,4.51-6.96.68,5.34-24.29,8.45-.83,10.05,22.78-6.93.68ZM252.68,61.01l-1.39-3.75c-.32-.83-.71-1.91-1.18-3.24-.47-1.32-.79-2.28-.95-2.85-.04.55-.14,1.47-.3,2.75-.16,1.28-.55,3.8-1.16,7.58l4.99-.49Z"/>
            <path class="cls-2" d="M291.88,58.35c-.19,3.93-1.42,6.9-3.68,8.92s-5.35,2.94-9.27,2.75l-7.61-.37,1.14-23.53,8.14.39c3.78.18,6.65,1.29,8.61,3.32,1.96,2.03,2.85,4.87,2.68,8.52ZM285.27,58.26c.1-2.16-.25-3.78-1.05-4.86s-2.07-1.67-3.81-1.75l-1.85-.09-.64,13.18,1.42.07c1.93.09,3.38-.4,4.33-1.48.96-1.08,1.49-2.77,1.6-5.08Z"/>
            <path class="cls-2" d="M325.11,64.68c-.79,3.88-2.35,6.64-4.67,8.27s-5.31,2.07-8.99,1.32c-3.62-.74-6.19-2.32-7.71-4.75-1.52-2.43-1.88-5.58-1.08-9.46.79-3.84,2.35-6.58,4.68-8.21s5.33-2.08,9-1.33c3.67.75,6.25,2.33,7.73,4.72s1.83,5.54,1.03,9.44ZM309.23,61.43c-.91,4.46.18,7.01,3.29,7.65,1.58.32,2.86.02,3.84-.91.99-.93,1.71-2.54,2.18-4.83.47-2.3.43-4.09-.12-5.34s-1.59-2.04-3.13-2.36c-3.13-.64-5.15,1.29-6.07,5.8Z"/>
            <path class="cls-2" d="M353.83,69.94c-.9,2.47-2.32,4.12-4.27,4.94-1.95.82-4.27.74-6.95-.23l-1.68-.61-2.67,7.35-5.98-2.17,8.04-22.14,7.66,2.78c2.8,1.02,4.68,2.39,5.64,4.12.96,1.73,1.03,3.72.21,5.97ZM342.7,69.16l1.09.4c.9.33,1.71.33,2.42.02.71-.31,1.23-.91,1.55-1.8.54-1.49-.01-2.54-1.67-3.14l-1.54-.56-1.85,5.09Z"/>
            <path class="cls-2" d="M366.3,93.78l-5.65-2.93,8.44-16.3-5.11-2.65,2.39-4.62,15.85,8.21-2.39,4.62-5.09-2.64-8.44,16.3Z"/>
            <path class="cls-2" d="M379.28,101.41l13-19.65,5.33,3.53-13,19.65-5.34-3.53Z"/>
            <path class="cls-2" d="M418.06,116.49c-2.57,3.01-5.27,4.67-8.09,4.98-2.82.31-5.65-.76-8.5-3.19-2.81-2.4-4.29-5.03-4.44-7.88-.15-2.86,1.06-5.79,3.63-8.81,2.55-2.98,5.24-4.62,8.07-4.92,2.83-.3,5.67.76,8.51,3.19,2.85,2.43,4.35,5.06,4.48,7.88s-1.08,5.74-3.66,8.76ZM405.73,105.97c-2.96,3.46-3.23,6.22-.82,8.28,1.23,1.05,2.49,1.4,3.8,1.07,1.31-.34,2.73-1.39,4.25-3.17,1.53-1.79,2.36-3.37,2.48-4.73.13-1.37-.4-2.56-1.6-3.58-2.43-2.07-5.13-1.36-8.12,2.14Z"/>
            <path class="cls-2" d="M431.89,149.63l-5.4-6.37,7.09-17.3-.09-.11c-1.86,1.84-3.31,3.21-4.36,4.1l-8.1,6.87-3.65-4.3,17.97-15.24,5.38,6.34-6.94,17.13.06.07c1.71-1.65,3.12-2.94,4.22-3.87l8.12-6.89,3.67,4.33-17.97,15.24Z"/>
          </g>
        </g>
        <rect class="cls-2" x="427.13" y="228.38" width="64.53" height="3.51"/>
        <rect class="cls-2" x="427.13" y="278.78" width="64.53" height="3.51"/>
        <g>
          <path class="cls-2" d="M265.94,191.92c0,8.64-1.36,17.19-4.08,25.64-2.72,8.46-6.59,16.59-11.6,24.39-5.01,7.8-9.84,14.68-14.48,20.63-4.65,5.95-10.2,12.69-16.66,20.2-6.46,7.51-11.18,13.27-14.16,17.26h60.98v37.67h-104.31v-33.65l47.69-68.27c2.76-3.99,5.04-7.4,6.86-10.24,1.81-2.83,3.76-6.24,5.83-10.24,2.07-3.99,3.63-7.95,4.68-11.87,1.05-3.92,1.58-7.77,1.58-11.54,0-2.25-.27-4.54-.82-6.86-.54-2.32-1.36-4.57-2.45-6.75s-2.6-3.94-4.52-5.28c-1.92-1.34-4.12-2.01-6.59-2.01-2.03,0-3.87.47-5.5,1.42-1.63.94-2.96,2.23-3.97,3.87-1.02,1.63-1.89,3.5-2.61,5.61-.73,2.11-1.24,4.34-1.53,6.7-.29,2.36-.54,4.74-.76,7.13s-.31,4.67-.27,6.81c.04,2.14.05,4.12.05,5.93v2.61h-37.57v-12.3c0-7.19.58-13.77,1.74-19.76,1.16-5.99,3.05-11.56,5.66-16.71,2.61-5.15,5.92-9.51,9.91-13.07,3.99-3.56,8.93-6.33,14.81-8.33,5.88-2,12.56-2.99,20.04-2.99,16.55,0,29.36,4.85,38.44,14.54,9.07,9.69,13.61,22.85,13.61,39.47Z"/>
          <path class="cls-2" d="M281.62,275.54h37.68c-.07,3.56-.07,6.55,0,8.98.07,2.43.22,5.08.44,7.95.22,2.87.6,5.21,1.14,7.02.54,1.82,1.27,3.54,2.18,5.17.91,1.63,2.07,2.83,3.48,3.59,1.42.76,3.07,1.14,4.96,1.14,2.39,0,4.54-.47,6.42-1.42,1.89-.94,3.41-2.23,4.57-3.87,1.16-1.63,2.16-3.52,2.99-5.66.83-2.14,1.43-4.43,1.8-6.86.36-2.43.67-4.9.93-7.4.25-2.5.34-4.92.27-7.24-.07-2.32-.07-4.5,0-6.53v-2.94c0-2.18-.04-4.08-.11-5.72-.07-1.63-.25-3.67-.54-6.1-.29-2.43-.76-4.54-1.42-6.32-.65-1.78-1.51-3.5-2.56-5.17-1.05-1.67-2.43-2.96-4.14-3.87-1.71-.91-3.69-1.36-5.93-1.36-3.56,0-6.7,1.54-9.42,4.63-2.72,3.09-4.88,6.63-6.48,10.62h-32.12v-112.59h93.32v37.24h-58.04v35.39c6.97-4.28,13.32-6.42,19.05-6.42,6.97,0,13.16,1.13,18.57,3.38,5.41,2.25,9.76,5.23,13.07,8.93,3.3,3.7,6.02,8.2,8.17,13.5,2.14,5.3,3.61,10.73,4.41,16.28.8,5.55,1.2,11.6,1.2,18.13s-.29,12.47-.87,18.02c-.58,5.55-1.56,11.22-2.94,16.99-1.38,5.77-3.36,10.89-5.93,15.35-2.58,4.46-5.74,8.48-9.47,12.03-3.74,3.56-8.4,6.3-13.99,8.22-5.59,1.92-11.94,2.89-19.05,2.89-8.06,0-15.14-1.16-21.23-3.48s-11.05-5.44-14.86-9.36c-3.81-3.92-6.9-8.77-9.25-14.54-2.36-5.77-3.99-11.74-4.9-17.91-.91-6.17-1.36-13.07-1.36-20.69Z"/>
        </g>
        <g>
          <path class="cls-2" d="M195.34,416.76c-.29-.5-.43-.94-.5-1.44-.07-.65,0-1.3.14-1.94.29-1.37.65-2.74,1.08-4.03.72-2.02,1.51-3.96,2.52-5.76.58-1.22,1.3-2.38,1.94-3.53.5-.72,1.01-1.44,1.44-2.16.65-.94,1.22-1.87,1.94-2.81.94-1.37,1.94-2.74,3.02-4.03,1.22-1.51,2.52-3.02,3.74-4.54.43-.5.86-1.08,1.3-1.58.43-.43.58-.94.65-1.66-.43.43-.65.79-.94,1.15-.5.65-1.01,1.22-1.73,1.58-1.94,1.08-4.03.22-4.97-1.37-.36-.58-.5-1.37-.58-2.09-.07-1.44.07-2.88.29-4.25.36-2.02,1.01-3.89,1.8-5.69.07-.07.07-.14.14-.22.72-1.44,3.53-.72,3.53.58,0,.72-.14,1.44-.36,2.16-.29,1.15-.65,2.3-.94,3.53-.14.65-.22,1.3-.29,1.94-.07,1.01-.22,2.02-.22,3.02v.36c.22.14.36,0,.43-.07.58-.5,1.08-1.08,1.44-1.66.72-1.01,1.37-1.94,2.02-2.95.43-.72.79-1.44,1.15-2.23.5-1.08,1.01-2.16,1.37-3.31.14-.36.29-.79.43-1.15.22-.43.65-.65,1.15-.58.94.14,2.3.86,2.23,2.02,0,.29,0,.5-.07.79-.14,1.08-.36,2.09-.5,3.17,0,.07,0,.22-.07.36.14-.07.22-.14.29-.14,1.8-1.8,3.89-3.96,5.11-4.68.86-.86,3.24,0,2.02,1.44-.43.43-.79.65-1.15,1.01-.22.22-3.46,3.38-5.11,5.04-.65.65-1.15,1.22-1.73,1.87-.29.22-.43.5-.5.86-.29,1.15-.5,2.38-.79,3.6-.22.86-.5,1.8-.72,2.74-.14.58-.29,1.15-.43,1.73-.36,1.66-.79,3.24-1.3,4.82-.22.72-.43,1.44-.65,2.16-.22.86-.58,1.73-.86,2.52-.07.29-.14.58-.22.86-.36.86-.72,1.66-1.01,2.52-.58,1.58-1.44,2.95-2.23,4.46-.22.5-.58.94-.86,1.44-.36.5-.72,1.08-1.08,1.66-1.15,1.66-2.45,3.24-3.96,4.61-.79.72-1.58,1.3-2.52,1.73-.86.36-1.8.36-2.66,0-.94-.43-1.73-1.01-2.23-1.87ZM198.94,416.25c.22-.29.5-.5.79-.79,1.08-1.08,1.87-2.23,2.66-3.46,1.01-1.51,1.94-3.1,2.74-4.68.65-1.37,1.3-2.74,1.87-4.18.29-.86.65-1.66,1.01-2.52.07-.36.14-.65.29-1.01.29-.72.5-1.44.72-2.23.29-.72.5-1.58.72-2.38.29-1.15.65-2.38,1.01-3.53.07-.36.14-.79.22-1.15,0,0-.07-.07-.14-.07-.07.07-.14.14-.22.22-.65.79-1.37,1.66-2.09,2.52-1.01,1.15-1.94,2.3-2.81,3.53-.65.94-1.3,1.87-1.94,2.81-1.01,1.66-2.02,3.31-2.88,4.97-1.58,2.81-2.74,5.76-3.46,8.93-.14.58-.14,1.15-.14,1.8-.07.5.07.94.29,1.44.07.14.22.29.29.43.43-.14.79-.36,1.08-.65Z"/>
          <path class="cls-2" d="M225.01,387.66c-2.02-1.15-3.17-2.88-3.31-5.26-.07-.94.07-1.87.29-2.74.29-.94.5-1.87.86-2.81.5-1.01.94-2.09,1.66-3.02.14-.29.36-.65.5-.94.79-1.22,1.73-2.38,2.81-3.38.94-.94,2.02-1.73,3.24-2.16.58-.22,1.15-.22,1.66.14.29.22.65.5.94.79.29.22.5.58.5.94,0,.29.07.58,0,.86-.14.94-.36,1.87-.72,2.74-.5,1.3-1.3,2.45-2.38,3.46-.5.5-1.08,1.01-1.66,1.37-.29.22-.58.36-.86.5-.5.22-1.01.5-1.66.22-.36.65-.43,1.22-.65,1.8-.36,1.08-.5,2.23-.5,3.31,0,.65.14,1.37.29,1.94.07.58.43.72.86.65,1.01-.14,2.09-.43,3.02-.86,1.73-.72,3.17-1.73,4.54-2.95,2.23-2.09,5.62-5.18,7.71-7.42,1.44-1.44,3.31-.72,2.52.5-.65.86-1.8,1.94-2.45,2.66-1.01,1.01-2.02,2.02-3.1,3.02-.94.94-1.94,1.73-2.88,2.66-.86.79-1.87,1.51-2.88,2.16-1.37.86-2.88,1.58-4.46,2.09-1.01.29-2.02.29-3.02,0-.29-.07-.58-.14-.86-.29ZM231.56,370.88c-.43.36-1.51,1.8-2.38,3.1-.36.58-.72,1.15-.94,1.8,1.66-1.22,2.95-2.66,3.31-4.9Z"/>
          <path class="cls-2" d="M248.55,390.54c-.43-1.3-.65-2.59-.5-3.96.07-.86.14-1.73.36-2.59,0-.07-.07-.14-.07-.22-.29.07-.36.36-.5.58-.72,1.08-1.51,2.09-2.38,3.1-.36.36-.72.72-1.08,1.08-.22.22-.58.36-.94.36-.79.07-1.58-.14-2.23-.72-.43-.36-.65-.94-.79-1.51-.14-.43-.22-.86-.14-1.3,0-1.44.22-2.88.65-4.25.29-1.01.58-2.09.94-3.1.58-1.58,1.22-3.24,2.09-4.68.36-.58.72-1.01,1.22-1.44.72-.72,1.51-.79,2.45-.43.72.36,1.37.86,1.66,1.58.22.5.36,1.08.36,1.58-.07.79-.07,1.58-.07,2.3,0,.22.07.43.07.65.07-.07.22-.07.22-.14,1.3-2.16,2.45-4.39,3.46-6.77.07-.22.14-.36.29-.58.22-.36.5-.5,1.01-.43.29.07.58.22.86.29.65.22,1.08.65,1.15,1.37,0,.94-.07,1.8-.36,2.66-.72,2.3-1.58,4.54-2.45,6.77-.36.94-.65,1.87-.94,2.88-.43,1.58-.79,3.17-1.08,4.75-.14.5-.14,1.01-.14,1.58.14-.14.22-.14.29-.22,1.15-1.15,2.16-2.45,3.1-3.82,1.08-1.58,2.16-3.17,3.31-4.75.29-.43,2.81-4.39,3.96-6.26.72-1.22,2.95-.94,2.02.86-.86,1.44-3.02,4.97-6.41,10.15-.58.79-1.15,1.66-1.73,2.45-.86,1.15-1.73,2.3-2.81,3.24-1.22,1.15-1.66,1.15-3.1.72-.94-.29-1.44-.94-1.73-1.8ZM245.31,383.84c.79-.94,1.58-1.87,2.23-2.88.58-.86,1.15-1.66,1.66-2.52.14-.14.29-.29.22-.58h-.72c-.5-.07-.94-.22-1.01-.79-.07-.29-.22-.65-.22-.94v-1.37c0-.14-.07-.22-.07-.43-.14.14-.22.14-.22.22-1.01,3.24-2.02,6.41-2.66,9.72-.07.14,0,.29,0,.5.29-.36.58-.65.79-.94Z"/>
          <path class="cls-2" d="M265.61,399.54c-.36-.5-.58-1.08-.72-1.66-.14-.94-.29-1.94-.29-2.88,0-.43,0-.86.07-1.37.14-1.08.29-2.16.43-3.31.07-.5.22-1.08.36-1.58.22-1.22.43-2.38.86-3.53.29-.86.5-1.8.79-2.74s.58-1.87.94-2.88c.14-.65.29-1.22.5-1.87-.14-.14-.14-.22-.22-.29-1.01-.5-2.02-1.01-3.02-1.44-.79-.36-1.44-.79-2.16-1.15-.29-.22-.5-.36-.79-.5-.58-.5-1.08-1.01-1.51-1.58-.94-1.3-1.3-2.74-1.08-4.32.07-1.08.5-2.16,1.01-3.1.43-.79.86-1.51,1.58-2.09.29-.22.58-.43.86-.65.58-.43,1.15-.5,1.87-.36.22.07.5.14.72.29,1.08.36,1.73,1.08,1.94,2.23.22,1.08.14,2.09.07,3.17-.22,2.16-.86,4.18-1.66,6.12,0,.07-.07.22-.07.29.43.36,1.01.58,1.51.86.72.29,1.51.58,2.23.94.36.14.72.36,1.08.5.65.29,1.08.86,1.37,1.51.07.22.14.43.14.72,0,.36-.07.79-.14,1.22-.22.86-.5,1.73-.72,2.66-.43,1.3-.79,2.59-1.22,3.89-.58,1.73-.86,3.6-1.22,5.4-.14.94-.14,1.94-.36,2.88-.07.79.07,1.58.07,2.3.22.07.29,0,.36-.14.22-.58.5-1.08.72-1.66.86-1.94,1.51-4.03,2.16-6.05.58-1.94,1.3-3.82,2.09-5.69.5-1.3,3.74-8.14,4.32-8.93.79-1.3,2.16-.22,1.87.72-.79,1.51-3.89,8.21-4.39,9.5-.22.43-.36.94-.5,1.37-.72,2.3-1.44,4.68-2.16,6.98-.65,1.94-1.3,3.89-2.16,5.76-.14.36-.36.72-.58,1.15-.22.29-.5.5-.79.79-.29.22-.58.29-.86.29-1.44-.07-2.52-.65-3.31-1.8ZM264.1,372.9c.14-.43.29-.79.43-1.15.79-2.23,1.22-4.39,1.01-6.77,0-.29-.07-.58-.29-.86-.36,0-.58.22-.72.43-.86.94-1.44,2.02-1.8,3.17-.43,1.58-.36,3.02.43,4.46.14.43.43.72.79.86.07-.07.14-.14.14-.14Z"/>
          <path class="cls-2" d="M278.86,405.37c-.79-.29-1.73-.58-2.38-1.15-.5-.36-.86-.94-1.08-1.44-.29-.86-.36-1.73-.43-2.59-.07-1.58.29-3.1.79-4.46,1.08-2.66,2.45-5.04,4.1-7.27.43-.5.79-1.01,1.15-1.44.29-.36.36-.58.29-1.01-.22-1.15-.5-2.45-.79-3.6-.14-.5-.14-1.08-.29-1.58-.14-.58-.29-1.08-.43-1.73-.14-.79-.29-1.51-.43-2.3-.07-.14,0-.36-.07-.5-.14-.29-.14-.65-.22-.94,0-.36-.07-.65-.07-.94,0-.07-.07-.14-.07-.22,0-1.15-.14-2.23-.14-3.31.14-1.66.29-3.31.79-4.9.29-.65.43-1.22.72-1.8.86-1.8,2.23-3.17,4.1-4.1.79-.43,1.8-.65,2.81-.65,1.94,0,3.74.58,5.47,1.66.79.43,1.51,1.15,2.09,1.94.36.58.58,1.15.72,1.87.07.14.07.36,0,.5-.07.5-.5.65-.94.29-.07,0-.22-.07-.29-.22-.14-.14-.22-.5-.5-.58-.07,0-.14-.22-.14-.29-.14-.36-.29-.65-.36-.86-.5-.94-1.3-1.51-2.23-1.87-1.15-.36-2.45-.58-3.67-.29-.14,0-.36.07-.5.14-.65.43-1.37.94-1.94,1.58-.65.65-1.01,1.44-1.3,2.23-.29,1.01-.43,2.02-.65,2.95-.14.65-.07,1.3-.22,1.94v.36c.07.72,0,1.51.07,2.3.22,1.08.14,2.16.36,3.17.22.5.22.94.22,1.37.22,1.51.72,3.02,1.01,4.61.07.22.14.43.29.72.79-.58,1.44-1.22,2.16-1.8,1.3-1.08,2.59-2.09,3.89-3.1,1.08-.79,2.09-1.58,3.1-2.38.72-.5,1.44-1.01,2.16-1.51,1.08-.79,2.52.65,1.3,1.58-1.01.86-2.16,1.73-3.24,2.59-.29.14-.65.43-.86.58-.07.07-.22.14-.22.22-.72.72-1.66,1.37-2.45,1.94-1.51,1.22-2.95,2.45-4.32,3.89-.22.29-.58.5-.86.86.07.5.14,1.01.22,1.51.29,1.01.36,1.94.43,2.95.07,1.15.29,2.38.07,3.46v.5c.07.79,0,1.58-.14,2.3-.07.79-.29,1.58-.43,2.38-.22,1.01-.58,2.02-1.08,3.02-.29.72-.58,1.51-1.08,2.09-.72.94-1.58,1.44-2.74,1.51-.58,0-1.15-.07-1.73-.22ZM279.29,402.49c.14-.29.43-.58.58-.86.79-1.37,1.3-2.88,1.66-4.32.22-.79.22-1.58.29-2.38.14-.5.14-1.01.07-1.44.07-.79.07-1.66,0-2.45.07-.29,0-.65,0-1.08-.14.14-.29.22-.36.29-.43.65-.94,1.37-1.37,2.02-1.15,1.73-1.94,3.67-2.38,5.76-.29,1.51-.29,2.88.22,4.25.14.22.14.5.36.58.36.07.65-.07.94-.36Z"/>
          <path class="cls-2" d="M310.97,385.64c-.22-.29-.43-.58-.65-.79-.43-.58-.5-1.22-.58-1.94-.14-1.87.22-3.67.86-5.47.36-1.08.86-2.02,1.51-2.95.5-.72,1.22-.86,2.02-.86.29,0,.58.14.86.29.5.29.65.58.5,1.01-.07.29-.14.58-.22.79-.36.86-.65,1.73-.86,2.66-.22.65-.36,1.3-.43,2.02-.14.58-.22,1.15-.29,1.73,0,.65,0,1.3.14,1.87.22.07.36,0,.43-.14.43-.43.86-.86,1.22-1.37,1.3-1.8,2.23-3.82,3.1-5.9-.07-.07-.22-.14-.36-.29-.43-.29-.94-.58-1.37-1.01-1.15-1.01-1.87-2.23-1.94-3.74,0-.94.22-1.8.65-2.59.5-1.01,1.22-1.8,2.23-2.38.65-.36,1.37-.36,2.09-.14.72.29,1.3.65,1.8,1.22.29.22.43.65.5.94.36.86.43,1.8.43,2.74-.07,1.08-.22,2.09-.43,3.17-.07.29-.07.58-.14.94,1.51,0,3.31-.72,4.61-1.3,1.22-.72,2.52.29.58,1.58-1.37.79-2.95,1.22-5.69,1.58-.07.14-.14.36-.29.58-.36,1.01-.79,2.16-1.22,3.17-.36.86-.79,1.73-1.3,2.52-.22.22-.36.43-.5.72-.58.79-1.15,1.58-2.09,2.02-.14.07-.29.22-.43.29-.58.43-1.22.58-1.87.43-1.15-.14-2.09-.58-2.88-1.37ZM319.32,374.63l.22-.86c.36-1.44.65-2.88.5-4.32-.07-.58-.14-1.15-.65-1.58-.65.14-1.01.72-1.3,1.15-.5.72-.79,1.51-.79,2.38,0,1.44.43,2.74,1.8,3.6.07-.14.14-.22.22-.36Z"/>
          <path class="cls-2" d="M325.73,405.97c-.58-.29-1.08-.58-1.44-1.15-.72-.79-.86-1.73-.94-2.66-.07-2.02-.22-4.1.07-6.19.14-1.87.5-3.74.86-5.62.14-.72.22-1.44.36-2.16.14-.58.29-1.08.5-1.66.5-2.45,1.87-7.78,2.38-9.22.36-1.22.79-2.38,1.08-3.6.5-1.44,1.01-2.95,1.58-4.46.65-2.02,1.37-3.96,2.02-5.98.43-1.01.79-2.02,1.15-2.95.65-1.73,1.22-3.38,2.02-4.97.43-.94.86-1.87,1.3-2.81.43-.72,1.01-1.37,1.58-1.87.58-.65,1.22-.86,2.02-.58.36.14.72.29,1.08.43.36.07.58.29.72.58.14.29.22.65.29,1.08.14,1.87-.07,3.67-.58,5.54-.43,1.94-1.08,3.89-1.8,5.83-.5,1.22-1.08,2.45-1.66,3.74-.5,1.01-1.01,1.94-1.58,2.95-.65,1.22-1.37,2.38-1.87,3.46-.72,1.15-1.51,2.3-2.3,3.31-.65.79-1.01,1.66-1.15,2.59-.36,1.15-.72,2.23-1.08,3.38-.22.72-.29,1.37-.5,2.02-.07.29-.14.65-.14,1.01.72.43,1.37.94,1.87,1.73,4.54-1.73,8.21-5.18,10.66-7.63,1.37-1.37,3.02-.22,1.8,1.15-3.67,3.67-6.34,6.12-11.45,8.14,0,.5.14.86.22,1.22.22.65.36,1.37.43,2.09.07.43.07.94.07,1.37s.07.94,0,1.37c-.07,1.44-.36,2.88-.79,4.25-.36,1.15-.79,2.23-1.44,3.31-.58,1.01-1.08,1.87-1.94,2.59-.79.72-1.73.86-2.81.58-.14-.07-.36-.14-.58-.22ZM328.25,403.02c.72-1.08,1.37-2.16,1.87-3.31.5-1.73.94-3.38,1.08-5.18.07-1.3-.07-2.66-.43-3.96-.07-.22-.14-.36-.22-.58-.65.14-1.3.29-1.87.43-.07.07-.07.14-.14.29-.14.94-.36,1.8-.5,2.74-.22,1.73-.43,3.46-.65,5.18-.14,1.3-.22,2.59-.29,3.96-.07.43-.07.86.14,1.37.43-.29.72-.65,1.01-.94ZM329.76,388.19c-.14-.22-.22-.43-.5-.5-.14.22-.22.43-.22.72.29.07.58.07.72-.22ZM334.8,369.11c.07-.07.22-.14.29-.22,1.3-2.74,2.59-5.4,3.53-8.21.43-1.58.79-3.17,1.15-4.75,0-.29.07-.58,0-1.01-.07.22-.22.29-.22.43-.29.58-.5,1.15-.72,1.8-.29,1.01-.72,2.02-1.08,3.02-.14.58-.29,1.22-.5,1.8-.79,2.23-1.66,4.46-2.3,6.7-.07.14-.07.29-.07.5-.07,0-.07.07-.07,0,0,.07,0,0,0-.07Z"/>
        </g>
        <g>
          <path class="cls-2" d="M439.66,248.53c0,1.24-.2,2.47-.59,3.68-.39,1.21-.95,2.38-1.66,3.5-.72,1.12-1.41,2.11-2.08,2.96-.67.85-1.46,1.82-2.39,2.9-.93,1.08-1.6,1.9-2.03,2.48h8.75v5.41h-14.97v-4.83l6.84-9.8c.4-.57.72-1.06.98-1.47.26-.41.54-.9.84-1.47.3-.57.52-1.14.67-1.7.15-.56.23-1.11.23-1.66,0-.32-.04-.65-.12-.98-.08-.33-.2-.66-.35-.97s-.37-.56-.65-.76c-.28-.19-.59-.29-.95-.29-.29,0-.55.07-.79.2-.23.14-.42.32-.57.55-.15.23-.27.5-.38.8-.1.3-.18.62-.22.96-.04.34-.08.68-.11,1.02s-.04.67-.04.98c0,.31,0,.59,0,.85v.38h-5.39v-1.77c0-1.03.08-1.98.25-2.84.17-.86.44-1.66.81-2.4.38-.74.85-1.36,1.42-1.88.57-.51,1.28-.91,2.12-1.2.84-.29,1.8-.43,2.88-.43,2.38,0,4.21.7,5.52,2.09,1.3,1.39,1.95,3.28,1.95,5.66Z"/>
          <path class="cls-2" d="M442.82,261.2v-11.58c0-1.25.15-2.4.45-3.45s.74-1.98,1.34-2.79,1.38-1.45,2.37-1.91c.98-.46,2.13-.69,3.43-.69s2.43.23,3.41.69c.98.46,1.77,1.1,2.37,1.91.59.82,1.04,1.75,1.34,2.79.3,1.04.45,2.19.45,3.44v11.58c0,1.2-.16,2.32-.47,3.37s-.77,1.98-1.38,2.79-1.4,1.46-2.38,1.93c-.98.47-2.09.71-3.33.71s-2.38-.23-3.37-.7-1.78-1.11-2.38-1.92c-.6-.81-1.06-1.74-1.37-2.79-.31-1.05-.46-2.17-.46-3.38ZM452.51,261.2v-11.58c0-2.7-.7-4.05-2.11-4.05-.39,0-.71.1-.98.3-.27.2-.48.43-.62.7-.14.27-.25.61-.33,1.02-.08.41-.12.76-.14,1.04s-.02.61-.02.98v11.58c0,.32.01.64.04.95.03.31.08.66.16,1.05.08.39.2.73.34,1.02.15.29.35.53.62.73.27.2.58.3.93.3.44,0,.81-.14,1.11-.41.3-.28.52-.64.66-1.1.13-.46.23-.89.27-1.28.05-.4.07-.81.07-1.23Z"/>
          <path class="cls-2" d="M476.27,248.53c0,1.24-.2,2.47-.59,3.68-.39,1.21-.95,2.38-1.66,3.5-.72,1.12-1.41,2.11-2.08,2.96-.67.85-1.46,1.82-2.39,2.9-.93,1.08-1.6,1.9-2.03,2.48h8.75v5.41h-14.97v-4.83l6.84-9.8c.4-.57.72-1.06.98-1.47.26-.41.54-.9.84-1.47.3-.57.52-1.14.67-1.7.15-.56.23-1.11.23-1.66,0-.32-.04-.65-.12-.98-.08-.33-.2-.66-.35-.97s-.37-.56-.65-.76c-.28-.19-.59-.29-.95-.29-.29,0-.55.07-.79.2-.23.14-.42.32-.57.55-.15.23-.27.5-.38.8-.1.3-.18.62-.22.96-.04.34-.08.68-.11,1.02s-.04.67-.04.98c0,.31,0,.59,0,.85v.38h-5.39v-1.77c0-1.03.08-1.98.25-2.84.17-.86.44-1.66.81-2.4.38-.74.85-1.36,1.42-1.88.57-.51,1.28-.91,2.12-1.2.84-.29,1.8-.43,2.88-.43,2.38,0,4.21.7,5.52,2.09,1.3,1.39,1.95,3.28,1.95,5.66Z"/>
          <path class="cls-2" d="M479.25,260.36h5.44v1.09c0,.19.01.46.04.83.03.36.06.66.11.88.05.22.12.48.23.77.1.29.23.52.38.68.15.16.34.3.57.42.23.12.5.18.79.18s.55-.05.78-.16c.23-.1.42-.23.56-.37.15-.14.27-.34.38-.61.1-.27.18-.49.23-.68s.08-.45.11-.79c.03-.34.04-.58.04-.73v-.71c0-1.3-.32-2.31-.96-3.02-.64-.71-1.61-1.05-2.9-1.02v-5.47c.63.02,1.17,0,1.61-.09s.84-.22,1.2-.44c.36-.21.62-.53.8-.96.17-.43.26-.96.26-1.61,0-.42-.03-.78-.08-1.1-.05-.32-.15-.63-.28-.95-.14-.31-.35-.55-.64-.73-.29-.17-.66-.26-1.09-.26-.29,0-.55.06-.79.18-.23.12-.42.26-.57.42-.15.16-.27.39-.38.67-.1.29-.18.54-.23.77-.05.23-.08.52-.11.88-.03.36-.04.63-.04.82v1.06h-5.45v-1.78c0-2.43.66-4.33,1.98-5.72,1.32-1.39,3.18-2.08,5.59-2.08s4.25.7,5.58,2.09c1.32,1.4,1.98,3.3,1.98,5.7,0,1.18-.24,2.3-.73,3.38s-1.19,1.91-2.12,2.49c.99.73,1.71,1.69,2.16,2.88.45,1.19.68,2.48.68,3.85,0,1.3-.14,2.47-.41,3.52-.28,1.04-.7,1.97-1.28,2.78s-1.36,1.44-2.35,1.88c-.99.44-2.16.66-3.52.66-1.15,0-2.16-.15-3.03-.44s-1.59-.69-2.15-1.19c-.56-.5-1.01-1.12-1.37-1.88-.35-.75-.6-1.54-.75-2.38-.15-.83-.23-1.77-.25-2.81v-.95Z"/>
        </g>
        <rect class="cls-2" x="52.35" y="228.38" width="64.53" height="3.51"/>
        <rect class="cls-2" x="52.35" y="278.78" width="64.53" height="3.51"/>
        <path class="cls-2" d="M97.23,187.43c0-.76-1.45-5.05-6.15-5.05-4.69,0-6.53,5.05-6.53,5.05,0,0-1.84-5.05-6.53-5.05-4.69,0-6.15,4.29-6.15,5.05,0,.76-.98,4.12,4.56,10.18,5.55,6.06,8.11,8.52,8.11,8.52,0,0,2.56-2.46,8.11-8.52,5.54-6.06,4.56-9.42,4.56-10.18Z"/>
        <path class="cls-2" d="M97.23,307.63c0-.76-1.45-5.05-6.15-5.05-4.69,0-6.53,5.05-6.53,5.05,0,0-1.84-5.05-6.53-5.05-4.69,0-6.15,4.29-6.15,5.05,0,.76-.98,4.12,4.56,10.18,5.55,6.06,8.11,8.52,8.11,8.52,0,0,2.56-2.46,8.11-8.52,5.54-6.06,4.56-9.42,4.56-10.18Z"/>
        <path class="cls-2" d="M473.1,187.43c0-.76-1.45-5.05-6.15-5.05-4.69,0-6.53,5.05-6.53,5.05,0,0-1.84-5.05-6.53-5.05-4.69,0-6.15,4.29-6.15,5.05,0,.76-.98,4.12,4.56,10.18,5.55,6.06,8.11,8.52,8.11,8.52,0,0,2.56-2.46,8.11-8.52,5.54-6.06,4.56-9.42,4.56-10.18Z"/>
        <path class="cls-2" d="M473.1,307.63c0-.76-1.45-5.05-6.15-5.05-4.69,0-6.53,5.05-6.53,5.05,0,0-1.84-5.05-6.53-5.05-4.69,0-6.15,4.29-6.15,5.05,0,.76-.98,4.12,4.56,10.18,5.55,6.06,8.11,8.52,8.11,8.52,0,0,2.56-2.46,8.11-8.52,5.54-6.06,4.56-9.42,4.56-10.18Z"/>
        <g>
          <path class="cls-2" d="M55.07,269.45v-20.89h-2.84v-4.14c.29-.18.68-.38,1.17-.62.49-.23.87-.42,1.14-.57.27-.15.57-.39.91-.72.33-.33.61-.73.84-1.2h4.16v28.14h-5.38Z"/>
          <path class="cls-2" d="M64.79,261.81v-.47h5.33c0,.32,0,.59.02.81,0,.22.03.5.06.84.03.34.09.62.18.85.09.23.2.46.34.69.13.23.32.4.55.52.23.11.49.17.8.17s.57-.08.81-.25c.24-.17.43-.37.58-.6.15-.23.27-.54.38-.93.1-.39.18-.73.23-1.04.05-.31.09-.69.12-1.16.03-.46.04-.81.04-1.04v-1.92c-.94.52-1.98.78-3.12.78-4.41,0-6.61-2.85-6.61-8.55,0-.99.08-1.94.25-2.85.17-.91.44-1.79.83-2.64.38-.85.86-1.58,1.44-2.2.57-.62,1.29-1.11,2.16-1.48.86-.37,1.83-.55,2.91-.55s1.99.19,2.85.56,1.58.88,2.15,1.51c.57.63,1.06,1.37,1.45,2.21.4.84.68,1.72.86,2.63.18.91.27,1.85.27,2.82v8.75c0,1.07-.07,2.09-.2,3.04-.13.95-.37,1.91-.73,2.86-.35.95-.81,1.77-1.36,2.45-.55.68-1.28,1.23-2.19,1.66s-1.94.64-3.11.64-2.24-.2-3.16-.61-1.67-.98-2.25-1.71-1.02-1.59-1.34-2.55-.48-2.04-.52-3.22ZM74.18,253.3v-3.7c0-.42-.03-.83-.08-1.23-.05-.4-.14-.83-.27-1.29-.13-.46-.35-.83-.66-1.11-.31-.28-.68-.42-1.12-.42-.29,0-.55.07-.78.2-.23.13-.41.29-.55.47-.14.18-.26.43-.37.74-.1.31-.18.59-.23.83-.05.24-.08.55-.11.92-.03.38-.04.65-.05.83,0,.18,0,.42,0,.73v.72c0,.16.01.41.04.77.03.36.06.64.11.84s.12.45.23.73c.1.28.23.5.38.66.15.16.33.29.56.41.23.11.49.17.78.17.42,0,.81-.12,1.2-.36.38-.24.69-.54.93-.91Z"/>
          <path class="cls-2" d="M83.61,261.81v-.47h5.33c0,.32,0,.59.02.81,0,.22.03.5.06.84.03.34.09.62.18.85.09.23.2.46.34.69.13.23.32.4.55.52.23.11.49.17.8.17s.57-.08.81-.25c.24-.17.43-.37.58-.6.15-.23.27-.54.38-.93.1-.39.18-.73.23-1.04.05-.31.09-.69.12-1.16.03-.46.04-.81.04-1.04v-1.92c-.94.52-1.98.78-3.12.78-4.41,0-6.61-2.85-6.61-8.55,0-.99.08-1.94.25-2.85.17-.91.44-1.79.83-2.64.38-.85.86-1.58,1.44-2.2.57-.62,1.29-1.11,2.16-1.48.86-.37,1.83-.55,2.91-.55s1.99.19,2.85.56,1.58.88,2.15,1.51c.57.63,1.06,1.37,1.45,2.21.4.84.68,1.72.86,2.63.18.91.27,1.85.27,2.82v8.75c0,1.07-.07,2.09-.2,3.04-.13.95-.37,1.91-.73,2.86-.35.95-.81,1.77-1.36,2.45-.55.68-1.28,1.23-2.19,1.66s-1.94.64-3.11.64-2.24-.2-3.16-.61-1.67-.98-2.25-1.71-1.02-1.59-1.34-2.55-.48-2.04-.52-3.22ZM93,253.3v-3.7c0-.42-.03-.83-.08-1.23-.05-.4-.14-.83-.27-1.29-.13-.46-.35-.83-.66-1.11-.31-.28-.68-.42-1.12-.42-.29,0-.55.07-.78.2-.23.13-.41.29-.55.47-.14.18-.26.43-.37.74-.1.31-.18.59-.23.83-.05.24-.08.55-.11.92-.03.38-.04.65-.05.83,0,.18,0,.42,0,.73v.72c0,.16.01.41.04.77.03.36.06.64.11.84s.12.45.23.73c.1.28.23.5.38.66.15.16.33.29.56.41.23.11.49.17.78.17.42,0,.81-.12,1.2-.36.38-.24.69-.54.93-.91Z"/>
          <path class="cls-2" d="M104.2,254.58c-1.38-1.42-2.06-3.42-2.06-6.02,0-2.41.61-4.31,1.84-5.7,1.22-1.4,3.02-2.09,5.38-2.09s4.15.7,5.36,2.1c1.21,1.4,1.81,3.3,1.81,5.7,0,2.64-.68,4.64-2.05,6.02.5.41.92.86,1.25,1.37.33.51.58,1.05.75,1.64.17.59.28,1.16.34,1.72.06.56.09,1.19.09,1.9,0,1.33-.13,2.52-.4,3.55s-.69,1.95-1.26,2.74c-.57.8-1.36,1.4-2.35,1.82-1,.42-2.18.62-3.55.62-5.04,0-7.56-2.91-7.56-8.73,0-1.49.16-2.77.48-3.85.32-1.08.96-2,1.92-2.77ZM108.52,265.38c.24.1.52.15.83.15s.59-.05.84-.16c.24-.1.44-.23.59-.37.15-.14.28-.34.4-.59.11-.25.2-.48.25-.68.05-.2.09-.46.12-.78.03-.32.04-.57.05-.73,0-.17,0-.4,0-.7,0-3.08-.75-4.62-2.25-4.62s-2.27,1.54-2.27,4.62c0,.29,0,.53,0,.71,0,.18.02.43.05.74s.07.57.12.77c.05.2.13.43.25.68.11.25.25.45.41.59.16.15.35.27.59.37ZM109.35,252.67c.24,0,.46-.06.65-.19.19-.12.35-.28.48-.45.12-.18.23-.42.31-.72.08-.3.15-.57.19-.8.04-.23.07-.53.09-.89.02-.36.03-.63.04-.8,0-.18,0-.42,0-.72,0-2.02-.59-3.03-1.77-3.03-.38,0-.69.1-.95.3-.26.2-.44.48-.55.82-.12.34-.19.66-.23.96-.04.3-.06.61-.06.95s0,.62.02.86c0,.24.03.56.06.96.03.4.09.74.16,1.02s.18.57.3.85c.12.29.29.51.51.66.21.15.46.23.74.23Z"/>
        </g>
      </g>
    </g>
    <path class="cls-1" d="M27.36,343.29c8.71,26.83,8.57,58.41,24.82,80.74,16.41,22.55,46.6,32.11,69.16,48.52,22.33,16.25,40.66,42.11,67.48,50.82,25.88,8.4,55.79-1.47,84.47-1.47s58.59,9.87,84.47,1.47c26.83-8.71,45.15-34.57,67.48-50.82,22.55-16.41,52.74-25.97,69.16-48.52,16.25-22.33,16.11-53.91,24.82-80.74,8.4-25.88,27.36-51.23,27.36-79.91s-18.95-54.03-27.36-79.91c-8.71-26.83-8.57-58.41-24.82-80.74-16.41-22.55-46.6-32.11-69.16-48.52-22.33-16.25-40.66-42.11-67.48-50.82-25.88-8.4-55.79,1.47-84.47,1.47s-58.59-9.87-84.47-1.47c-26.83,8.71-45.15,34.57-67.48,50.82-22.55,16.41-52.74,25.97-69.16,48.52-16.25,22.33-16.11,53.91-24.82,80.74C18.95,209.35,0,234.69,0,263.38s18.95,54.03,27.36,79.91ZM273.29,24.55c131.9,0,238.82,106.93,238.82,238.82s-106.93,238.82-238.82,238.82S34.47,395.27,34.47,263.38,141.39,24.55,273.29,24.55Z"/>
  </g>
</svg>