<svg xmlns="http://www.w3.org/2000/svg" id="Layer_2" data-name="Layer 2" viewBox="0 0 395.2 395.2"><defs><style>.cls-1,.cls-2{fill:#df4c93}.cls-1,.cls-2,.cls-4,.cls-5{font-family:OpenSans-Extrabold,&quot;Open Sans&quot;;font-weight:700}.cls-1,.cls-4{font-size:27.61px}.cls-2,.cls-5{font-size:26.85px}.cls-9{fill:none;stroke-width:4px;stroke-miterlimit:10;stroke:#57353c}.cls-4,.cls-5{fill:#57353c}</style></defs><g id="Layer_1-2" data-name="Layer 1"><text class="cls-4" transform="rotate(76.84 -132.688 129.746)"><tspan x="0" y="0">B</tspan></text><text class="cls-4" transform="rotate(71.1 -160.767 145.782)"><tspan x="0" y="0">I</tspan></text><text class="cls-4" transform="rotate(65.36 -188.232 157.452)"><tspan x="0" y="0">R</tspan></text><text class="cls-4" transform="rotate(58.46 -231.42 179.82)"><tspan x="0" y="0">T</tspan></text><text class="cls-4" transform="rotate(51.18 -286.457 205.712)"><tspan x="0" y="0">H</tspan></text><text class="cls-4" transform="rotate(42.1 -380.47 249.752)"><tspan x="0" y="0">M</tspan></text><text class="cls-4" transform="rotate(32.85 -530.054 326.67)"><tspan x="0" y="0">O</tspan></text><text class="cls-4" transform="rotate(25.38 -727.43 430.283)"><tspan x="0" y="0">T</tspan></text><text class="cls-4" transform="rotate(18.02 -1074.729 598.02)"><tspan x="0" y="0">H</tspan></text><text class="cls-4" transform="rotate(10.86 -1863.352 1004.84)"><tspan x="0" y="0">E</tspan></text><text class="cls-4" transform="rotate(4.18 -5016.205 2574.606)"><tspan x="0" y="0">R</tspan></text><text class="cls-4" transform="rotate(-.98 21944.14 -11274.965)"><tspan x="0" y="0"> </tspan></text><text class="cls-4" transform="rotate(-5.69 3861.511 -1888.263)"><tspan x="0" y="0">S</tspan></text><text class="cls-4" transform="rotate(-12.91 1754.807 -811.754)"><tspan x="0" y="0">U</tspan></text><text class="cls-4" transform="rotate(-20.43 1139.531 -509.658)"><tspan x="0" y="0">P</tspan></text><text class="cls-4" transform="rotate(-27.33 871.202 -374.49)"><tspan x="0" y="0">P</tspan></text><text class="cls-4" transform="rotate(-34.99 696.598 -282.563)"><tspan x="0" y="0">O</tspan></text><text class="cls-4" transform="rotate(-42.82 579.445 -227.15)"><tspan x="0" y="0">R</tspan></text><text class="cls-4" transform="rotate(-49.66 506.1 -192.124)"><tspan x="0" y="0">T</tspan></text><text class="cls-4" transform="rotate(-54.49 462.838 -175.966)"><tspan x="0" y="0"> </tspan></text><text class="cls-1" transform="rotate(-59.31 430.408 -154.114)"><tspan x="0" y="0">2</tspan></text><text class="cls-1" transform="rotate(-65.75 391.38 -134.341)"><tspan x="0" y="0">4</tspan></text><text class="cls-1" transform="rotate(-71.51 360.858 -120.684)"><tspan x="0" y="0">/</tspan></text><text class="cls-1" transform="rotate(-77.26 336.217 -106.264)"><tspan x="0" y="0">7</tspan></text><text class="cls-2" transform="rotate(-76.7 128.229 56.731)"><tspan x="0" y="0">2</tspan></text><text class="cls-2" transform="rotate(-70.29 131.536 42.069)"><tspan x="0" y="0">4</tspan></text><text class="cls-2" transform="rotate(-64.58 133.98 25.354)"><tspan x="0" y="0">/</tspan></text><text class="cls-2" transform="rotate(-58.89 138.897 9.124)"><tspan x="0" y="0">7</tspan></text><text class="cls-5" transform="rotate(-54.11 140.577 -12.755)"><tspan x="0" y="0"> </tspan></text><text class="cls-5" transform="rotate(-48.92 148.312 -29.883)"><tspan x="0" y="0">B</tspan></text><text class="cls-5" transform="rotate(-43.3 152.753 -65.537)"><tspan x="0" y="0">I</tspan></text><text class="cls-5" transform="rotate(-37.68 163.44 -98.638)"><tspan x="0" y="0">R</tspan></text><text class="cls-5" transform="rotate(-30.87 177.151 -165.494)"><tspan x="0" y="0">T</tspan></text><text class="cls-5" transform="rotate(-23.6 202.46 -269.557)"><tspan x="0" y="0">H</tspan></text><text class="cls-5" transform="rotate(-14.46 268.052 -546.241)"><tspan x="0" y="0">M</tspan></text><text class="cls-5" transform="rotate(-5.22 558.542 -1858.136)"><tspan x="0" y="0">O</tspan></text><text class="cls-5" transform="rotate(2.07 -1045.968 5392.86)"><tspan x="0" y="0">T</tspan></text><text class="cls-5" transform="rotate(9.3 -151.673 1320.66)"><tspan x="0" y="0">H</tspan></text><text class="cls-5" transform="rotate(16.39 -42.076 832.181)"><tspan x="0" y="0">E</tspan></text><text class="cls-5" transform="rotate(23.07 1.198 634.454)"><tspan x="0" y="0">R</tspan></text><text class="cls-5" transform="rotate(28.32 17.816 557.8)"><tspan x="0" y="0"> </tspan></text><text class="cls-5" transform="rotate(33.07 32.253 493.28)"><tspan x="0" y="0">S</tspan></text><text class="cls-5" transform="rotate(40.2 46.601 430.133)"><tspan x="0" y="0">U</tspan></text><text class="cls-5" transform="rotate(47.55 55.291 389.159)"><tspan x="0" y="0">P</tspan></text><text class="cls-5" transform="rotate(54.33 61.928 359.044)"><tspan x="0" y="0">P</tspan></text><text class="cls-5" transform="rotate(61.92 68.893 330.747)"><tspan x="0" y="0">O</tspan></text><text class="cls-5" transform="rotate(69.78 72.98 310.179)"><tspan x="0" y="0">R</tspan></text><text class="cls-5" transform="rotate(76.65 75.969 295.014)"><tspan x="0" y="0">T</tspan></text><circle cx="197.6" cy="197.6" r="195.6" class="cls-9"/><circle cx="197.6" cy="195.1" r="138.12" style="stroke-miterlimit:10;fill:none;stroke-width:4px;stroke:#6f5054"/><circle cx="198.6" cy="195.89" r="122.99" style="stroke-width:0;fill:#f3e8ed"/><g><path d="M185.4 239.98v-35.74l-21.53-23.01a8.9 8.9 0 0 0-12.01-.91h0c-4.02 3.17-4.54 9.07-1.14 12.9m-11.36-12.55c-1.28-1.28-2-3.02-2-4.83v-40.06c0-4.45-3.6-8.05-8.05-8.05h0c-4.45 0-8.05 3.6-8.05 8.05v62.03c0 2.56 1.02 5.02 2.83 6.83l20.1 20.1a9.67 9.67 0 0 1 2.83 6.83v8.41m13.12-36.44-20.78-22.87m74.91 59.31v-35.74l21.53-23.01a8.9 8.9 0 0 1 12.01-.91h0c4.02 3.17 4.54 9.07 1.14 12.9m11.36-12.55c1.28-1.28 2-3.02 2-4.83v-40.06c0-4.45 3.6-8.05 8.05-8.05h0c4.45 0 8.05 3.6 8.05 8.05v62.03c0 2.56-1.02 5.02-2.83 6.83l-20.1 20.1a9.67 9.67 0 0 0-2.83 6.83v8.41m-13.13-36.44 20.79-22.87" style="fill:none;stroke-width:4px;stroke-linecap:round;stroke-linejoin:round;stroke:#57353c"/></g><g><path d="M190.08 265.63h-47.86c-2.72 0-4.92-2.2-4.92-4.92v-18.99c0-2.72 2.2-4.92 4.92-4.92h47.86c2.72 0 4.92 2.2 4.92 4.92v18.99c0 2.72-2.2 4.92-4.92 4.92m67.36 0h-47.86c-2.72 0-4.92-2.2-4.92-4.92v-19c0-2.72 2.2-4.92 4.92-4.92h47.86c2.72 0 4.92 2.2 4.92 4.92v19c0 2.72-2.2 4.92-4.92 4.92m-57.61-79.02-28.62-26.62c-7.99-7.99-7.99-21 0-28.99 7.87-7.87 20.6-7.99 28.62-.36 8.02-7.63 20.75-7.51 28.62.36 7.99 7.99 7.99 21 0 28.99-4.89 4.56-28.57 26.58-28.62 26.62" style="fill:#df4c93;stroke-width:0"/></g><path d="M.89 195.1h58.59m275.14 0h58.58" class="cls-9"/></g></svg>