<?xml version="1.0" encoding="UTF-8"?>
<svg id="Layer_2" data-name="Layer 2" xmlns="http://www.w3.org/2000/svg" xmlns:xlink="http://www.w3.org/1999/xlink" viewBox="0 0 243.36 243.36">
  <defs>
    <style>
      .cls-1 {
        fill: url(#linear-gradient);
      }

      .cls-1, .cls-2 {
        stroke-width: 0px;
      }

      .cls-2 {
        fill: #fff;
      }
    </style>
    <linearGradient id="linear-gradient" x1="182.48" y1="16.38" x2="60.89" y2="226.98" gradientUnits="userSpaceOnUse">
      <stop offset="0" stop-color="#4845a2"/>
      <stop offset=".19" stop-color="#8744a1"/>
      <stop offset=".3" stop-color="#a844a1"/>
      <stop offset=".35" stop-color="#ab419a"/>
      <stop offset=".42" stop-color="#b43b87"/>
      <stop offset=".51" stop-color="#c23169"/>
      <stop offset=".6" stop-color="#d6243e"/>
      <stop offset=".6" stop-color="#d7243e"/>
      <stop offset=".88" stop-color="#f9a326"/>
      <stop offset="1" stop-color="#f9dd26"/>
    </linearGradient>
  </defs>
  <g id="Calque_1" data-name="Calque 1">
    <g>
      <rect class="cls-1" x="0" y="0" width="243.36" height="243.36" rx="121.68" ry="121.68"/>
      <g>
        <path class="cls-2" d="m153.26,48.65h-62.58c-23.6,0-42.73,19.13-42.73,42.73v62.58c0,23.6,19.13,42.73,42.73,42.73h62.58c23.6,0,42.73-19.13,42.73-42.73v-62.58c0-23.6-19.13-42.73-42.73-42.73m29.1,106.41c0,15.67-12.7,28.37-28.37,28.37h-64.05c-15.67,0-28.37-12.7-28.37-28.37v-64.05c0-15.67,12.7-28.37,28.37-28.37h64.05c15.67,0,28.37,12.7,28.37,28.37v64.05Z"/>
        <path class="cls-2" d="m121.97,84.63c-21.21,0-38.41,17.2-38.41,38.41s17.2,38.41,38.41,38.41,38.42-17.2,38.42-38.41-17.2-38.41-38.42-38.41m0,63.31c-13.75,0-24.9-11.15-24.9-24.9s11.15-24.9,24.9-24.9,24.9,11.15,24.9,24.9-11.15,24.9-24.9,24.9"/>
        <path class="cls-2" d="m161.67,74.22c-4.94,0-8.95,4.01-8.95,8.95s4.01,8.95,8.95,8.95,8.95-4.01,8.95-8.95-4.01-8.95-8.95-8.95"/>
      </g>
    </g>
  </g>
</svg>