<svg xmlns="http://www.w3.org/2000/svg" id="Layer_2" data-name="Layer 2" viewBox="0 0 453.5 418.88"><defs><style>.cls-1{fill:none;stroke:#f86767;stroke-width:2.5px;stroke-miterlimit:10}.cls-4{stroke-width:0;fill:#000}</style></defs><g id="Layer_1-2" data-name="Layer 1"><circle cx="227.42" cy="209.44" r="208.19" style="fill:#fff;stroke-miterlimit:10;stroke:#f86767;stroke-width:2.5px"/><g><path d="M266.12 138.34c-.06 3.89-.31 9-1.87 14.18-.36 1.19-1.42 2.73-2.63 2.63-.77-.92-1.01-1.82-1.28-2.81-.29-1.77.24-5.82.63-8.98.66-4.7-.56-12.19-8.74-19.01-3.07-1.69-7.67-1.53-11.5 4.6-3.71 6.35-4.64 12.8-5.81 19.93-.23 1.38-.87 3.08-2.36 3.69-1.37-.44-1.19-2.64-.98-4.09.61-4.15.34-8.16.81-12.34.83-7.3.63-15.1 6.35-20.67 5.21-6.07 18.71-8.95 23.8 3.98 2.37 5.73 3.87 10.35 3.59 18.9M140.42 250.6c5.05-3.52 14.49-6.42 21.01-7.75 4.84-.99 9.96-1.2 14.91-1.41 2.58-.24 2.35-.03 2.43 2.65.34 2.81 1.06 5.58 1.54 8.38.61 3.11.96 3.67-2.98 2.72-3.86-1.39-7.91-1.92-11.9-2.6-6.95-1.19-13.63-2.1-20.33-2.21-.43.03-2.82 0-4.7.24m87.1-122.66c-.83-5.89-2.7-12.26-7.76-16.1-2.7-2.05-5.56-3.14-8.09-3.82-1.92-.2-3.84-.45-6.07-.12-3.54.8-4.01 1.64-5.87 3.14-4.01 3.24-5.69 8.1-6.98 12.24-1.84 7.3-3.03 11.43-3.14 21.85.03.19.22 2.79-.71 1.92-.47-.44-1.01-1.45-1.37-2.01-3.4-5.31-7.87-7.23-12.58-5.02-2.19 1.03-4.58 3.89-5.88 5.91-3.84 5.87-5.66 13.15-6.98 21.75-.32 2.94-.81 6.07-.91 8.5-.3 8.9-.42 4.98-4.55 3.03-6.07-3.44-12.04-3.44-16.79 2.83-3.24 3.95-4.75 9.61-5.77 16.08-.91 6.37-.85 17.7 1.11 26.7.74 3.4 2.43 13.05 3.39 12.7.45-.46.29-18.74 1.5-27.35.78-5.53 1.54-11.01 3.67-16.2 1.08-2.63 2.56-5.76 5.39-6.27 3.44-.32 5.41 2.82 7.41 5.15l.32.48c5.6 9.12 8.12 19.22 9.67 29.68l.71 4.45.2-3.64c.13-.47.61-15.52.81-23.06.09-3.42.22-7.5.4-10.72.76-6.79.96-13.6 2.23-20.33.99-5.27 1.92-11.43 4.55-15.58 1.89-2.52 3.74-3.14 6.21-.6.84.75 1.51 1.71 2.16 2.64 3.65 5.29 5.71 11.32 8.01 17.23 0 0 .61 1.87 1.07 3.07 0-1.93.25-5.61.25-7.37.1-6.98 1.4-21.69 3.95-33.38 0 0 2.33-10.32 5.97-15.37 2.93-4.45 7.96-4.5 11.58-1.89 2 1.55 4.8 5.43 5.71 9.78 1.73 7.39 1.82 14.49 1.42 22.05-.1 1.86.68 5.53 2.23 5.73 1.37-.67 2.07-2.2 2.43-4.01 1.65-7.28 2.21-16.09 1.08-24.06" class="cls-4"/><path d="M229.36 168.07c-18.74 4.25-29 16.51-29.95 35.79-.1 2-.9 2.8-2.84 2.56-3.29-.41-4.96 1.08-5.99 4.24-.96 2.96-.64 6.08-1.65 8.95-.61 1.72-.21 2.97.92 4.13 1.44 1.49 1.79 3.14 1.55 5.22-.67 5.76-1.47 11.49-.76 17.38 1.15 9.64 8.56 17.42 18.58 18.33 0 0 .73.04 2.81.42.65 1.43 1.45 2.75 2.36 4.43 3.1 4.71 11.56 9.56 19.8 5.01 2.43 2.16 7.25 2.28 12.02-2.33 4.49-4.01 7.05-9.43 9.74-14.69 2.38-4.65 5.28-8.94 9.64-11.84q5.25-3.51 10.29-7.26c5.82-4.32 11.49-8.73 14.44-15.81 3.6-8.66 4.35-17.48.39-25.8-4.12-8.64-10.29-14.84-18.17-20.23-9.17-6.28-19.13-10.09-30.72-9.74-4.03-.31-8.28.32-12.46 1.27m113.33 57.19c-.72 7.45-1.13 17.41-11.3 27.85-10.44 13.22-19.22 23.84-26.17 33.04-8.59 13.35-15.86 10.97-25.64 16.79-1.98-.66-3.17-1.06-6.08-1.32 5.95-2.91 12.82-8.59 17.81-14.91 6.91-7.75 13.49-15.8 20.21-23.72 4.86-5.73 9.69-10.94 14.66-17.11 3.62-2.41 5.1-8.61 6.34-13.51 1.67-6.65 2.15-13.48 2.68-20.29.51-3.93-1.48-5.81-5.54-4.69-14.49 2.5-24.99 14.68-28.82 25.44-1.23 3.43-2.48 3.52-6.61 5.43-2.5 1.81-18.93 8-27.81 17.99-5.49 6.2-10.37 12.43-14.23 20.04-.48 1.04-.32 1.71-1.76 2.11-5.62.97-12.45 3.5-18.31 6.22-6.38 2.96-14.04 9.25-17.11 11.31-1.25.94-3.47 2.09-3.47 2.09.48-4.07 2.54-8.01 5.35-10.52 2-1.78 3.89-3.65 5.4-5.89 1.1-2 .6-1.76-.84-1.75-5.5-.13-9.43-3.37-11.2-5.45-1.3-1.42-2.56-3.06-2.99-4.29-1.14-.01-2.25-.31-3.08-.65-5.73-1.55-12.8-5.64-15.26-9.74-2.83-3.47-4.3-7.89-5.52-12.1-1.34-5.28-2-10.8-.69-16.84 1.62-6.07-.62-10.1-.71-15.21-.09-5.3 2.08-13.58 4.81-15.97 1.11-1.45 2.34-.56 3.24-1.37 1.45-.85 1.51-3.58 2.08-5.75 3.07-12.5 10.58-21.57 21.47-28.22 9.67-5.9 19.19-7.93 31.32-8.29 12.26.23 22.89 3.4 34.52 10.94 0 0 3.54 2.44 4.76 3.17 7.8 5.95 11.58 13.71 14.8 22.47 2.14 5.82 3.32 11.83 3.84 18.02.08.93.13 1.63.94 2.02.51-.1 1.2-1.45 1.83-2.06 5.68-5.44 14.21-10.12 23.78-11.8 1.55-.35 2.92-.54 4.77-.66 5.48-.58 7.53 1.62 8.59 7.3.55 2.75.73 9.25.74 12.64 0 2.96-.54 4.82-.81 7.22" class="cls-4"/><path d="M230.96 244.92c.42.06.58.77.36 1.01-2.53 2.04-1.63 2.51 1.18 3.85 1.04.58-.76 2.06 2.9 3.2.8.3 2.21.09 3.59.13.68-.1.5 1.84 2.83.99.51-.26 1.03.38.33.91-.83.73-2.29 1.17-3.81.88-.57-.04-.9-.66-1.45-.88-.24-.33-1.95-.49-3.37-.57-1.01-.06-1.97-.66-2.26-1.85-.42-1.07-1.01-2.09-2.03-2.5-1.06-.65-2.62-2.02-2.08-3.16.61-1.44 2.67-2.17 3.81-2.03m27.3 1.19c-1.58 1.92-5.3 2.43-7.73 1.28-2.61-1.24-3.84-3.64-3.94-6.4-.04-.29-.2-1.53.25-1.77.59-.29.91.43 1.08 1.28.39 3.59 4.47 6.45 10.34 5.61m-18.59-11.42c-1.11 2.05-4.06 2.93-6.88 1.9-3.37-1.51-5.35-4.47-4.38-8.76h.3c1.37 6.05 6.15 7.94 10.96 6.85m-15.81 26.73c.15-.34.42-.25.61 0 1.97 3.48 3.95 2.84 4.63 2.28.53-.26.72.12.72.49-.19 1.22-2 1.59-2.84 1.29-2.01-.3-3.53-2.05-3.11-4.06m4.69-4.61c-1.17-.79-3.81-.92-4.95-.79-2.32.06-1.71-1.11-2.15-1.1l-.82.13c-.18.53.38 1.25.81 1.53.65.35 1.69.5 2.83.91 1.42.4 2.46 3.54 3.17 3.78 1.32.85 2.09.53 2.99 1.03.62.37 3.47 2.41 4.41 2.59.12-2.02-1.22-5.12-1.99-5.12-.63-.1-1.77.42-2.25.05-.29-.22.1-.99-.03-1.39-.68-.98-1.46-1.33-2.03-1.63" class="cls-4"/></g><circle cx="226.86" cy="209.74" r="144.51" class="cls-1"/><g><path d="m51.6 248.75-.51-3.06 6.37-2.83q.345-.15 1.41-.57c.72-.28 1.2-.45 1.45-.52-.32.02-.83.02-1.55 0-.71-.02-1.22-.05-1.53-.07l-6.93-.59-.51-3.05 12.13-5.36.44 2.64-6.64 2.78c-1.23.5-2.3.89-3.22 1.17.33-.02.86-.03 1.57-.02.71 0 1.27.04 1.67.08l7.41.65.43 2.54-6.79 3.04c-.3.13-.77.32-1.41.55-.63.23-1.18.42-1.63.56.46-.02 1.04-.02 1.73 0s1.26.04 1.69.07l7.19.45.44 2.64-13.21-1.09Zm11.51 18.64c-2.04.59-3.76.53-5.15-.16-1.39-.7-2.36-1.99-2.9-3.88s-.41-3.5.39-4.83 2.24-2.29 4.29-2.88 3.77-.54 5.15.17 2.34 2 2.88 3.9.42 3.51-.38 4.83-2.23 2.27-4.28 2.86Zm-2.6-9.01c-1.38.4-2.34.96-2.89 1.68s-.67 1.61-.37 2.65c.6 2.09 2.29 2.73 5.07 1.93q4.17-1.2 3.27-4.32c-.3-1.04-.88-1.73-1.73-2.05s-1.97-.29-3.35.1Zm4.37 18.19-4.58 1.82-1.01-2.53 11.94-4.75 1.38 3.48c.64 1.62.83 2.94.54 3.95-.28 1.01-1.02 1.76-2.23 2.24-.7.28-1.4.33-2.1.17s-1.35-.55-1.94-1.13q-2.955 4.29-3.81 5.58l-1.12-2.81 3.45-4.67-.54-1.35Zm2.06-.81.32.82c.32.8.69 1.34 1.1 1.61s.91.3 1.49.07c.57-.23.89-.58.98-1.06s-.04-1.14-.36-1.95l-.31-.77-3.23 1.28Zm3.34 24.29-1.4-2.76 3.31-5.45-1.26-.65-4.09 2.07-1.23-2.43 11.46-5.81 1.23 2.43-5.25 2.66 1.83.27 5.47 1.13 1.37 2.7-7.1-1.43-4.35 7.27Zm3.01 5.08 11.01-6.63 1.41 2.33-11.01 6.63zm12.04 17.96-2.02-2.81 4.63-10.21-.05-.06c-1.33 1.09-2.29 1.85-2.89 2.28l-4.91 3.53-1.42-1.98 10.44-7.5 2 2.79-4.56 10.15.04.05c1.31-1.05 2.24-1.77 2.8-2.17l4.94-3.55 1.43 1.99-10.44 7.5Zm13.47 4.86 3.38 3.82-4.99 4.41c-.75-.44-1.41-.9-1.97-1.37s-1.1-1-1.6-1.57c-1.28-1.45-1.84-2.94-1.66-4.46s1.06-2.99 2.66-4.4c1.55-1.37 3.16-2 4.81-1.88s3.18.97 4.57 2.54c.87.99 1.52 2.11 1.93 3.38l-2.23.76c-.27-1.01-.74-1.9-1.41-2.66-.78-.88-1.7-1.33-2.76-1.33s-2.09.43-3.09 1.32q-1.56 1.38-1.83 2.76c-.27 1.38.1 1.78.82 2.6.38.43.8.82 1.28 1.18l2.01-1.78-1.61-1.82 1.7-1.5Zm13.31 23.12-2.07-1.78 6.9-8.02-2.65-2.27 1.48-1.72 7.36 6.33-1.48 1.72-2.65-2.28-6.9 8.02ZM133 358.8c-1.23 1.73-2.61 2.76-4.13 3.08s-3.08-.09-4.69-1.23c-1.6-1.14-2.51-2.48-2.7-4.02-.2-1.54.32-3.18 1.56-4.93 1.24-1.74 2.62-2.77 4.13-3.08 1.52-.31 3.08.11 4.69 1.25s2.51 2.48 2.71 4.01c.19 1.53-.33 3.17-1.56 4.91Zm-7.64-5.43c-.83 1.17-1.24 2.21-1.21 3.12.02.91.48 1.68 1.36 2.3 1.77 1.26 3.5.71 5.17-1.64 1.68-2.36 1.63-4.17-.13-5.42-.88-.63-1.76-.8-2.63-.53-.87.28-1.72 1-2.55 2.17Zm24.05 22.13-6.57-3.4 5.9-11.41 6.57 3.4-1.03 1.98-4.15-2.15-1.3 2.51 3.86 2-1.03 1.98-3.86-2-1.52 2.94 4.15 2.15-1.03 2Zm16.97 7.3-3.21-1.3-1.54-11.11-.07-.03c-.54 1.63-.95 2.79-1.22 3.47l-2.27 5.61-2.26-.91 4.81-11.91 3.19 1.29 1.57 11.01.06.02c.54-1.58.95-2.69 1.21-3.33l2.28-5.64 2.27.92-4.81 11.91Zm19.37-.84c-.59 2.03-1.61 3.42-3.08 4.17s-3.3.8-5.48.17l-3.5-1.01 3.56-12.35 3.88 1.12c2.02.58 3.43 1.57 4.23 2.95s.94 3.03.39 4.94Zm-2.74-.72c.77-2.65-.02-4.32-2.36-4.99l-1.39-.4-2.32 8.04 1.12.32c2.52.73 4.17-.26 4.96-2.97Zm16.28 10.13 1.98-12.7 2.69.42-1.98 12.7zm21.51 2.3-3.45-.26-4.85-10.11h-.08c-.02 1.71-.05 2.94-.11 3.67l-.45 6.03-2.43-.18.95-12.81 3.43.25 4.85 10.01h.06c.04-1.67.08-2.85.13-3.54l.45-6.07 2.45.18-.95 12.81Zm10.3.07-2.68.04-.21-12.85 7.36-.12.04 2.23-4.68.08.06 3.31 4.36-.07.04 2.22-4.36.07.08 5.08Zm19.37-1.26-1.24-2.95-4.66.48-.62 3.14-2.92.3 3.2-13.3 3.31-.34 5.84 12.37-2.92.3Zm-2.12-5.16q-1.71-4.005-1.92-4.53c-.14-.35-.25-.63-.32-.83-.12.77-.48 2.67-1.09 5.7zm22.19 1.64-3.39.69-7.42-8.41-.08.02q.675 2.49.9 3.57l1.21 5.92-2.38.49-2.57-12.59 3.37-.69 7.39 8.31h.06c-.42-1.63-.7-2.78-.84-3.46l-1.22-5.96 2.4-.49 2.57 12.59Zm12.13-3.42-2.61.79-3.08-10.12-3.34 1.02-.66-2.17 9.28-2.83.66 2.17-3.34 1.02 3.08 10.12Zm24.58-9.71-2.13-2.39-4.25 1.96.44 3.17-2.67 1.23-1.29-13.62 3.02-1.4 9.54 9.8-2.67 1.23Zm-3.68-4.18c-1.94-2.16-3.04-3.38-3.29-3.66s-.44-.51-.57-.68c.14.76.41 2.68.82 5.75l3.04-1.4Zm5.19-11 3.46-2c1.58-.91 2.85-1.35 3.82-1.32s1.74.54 2.31 1.52c.38.67.54 1.3.48 1.91s-.33 1.1-.8 1.49l.04.08q1.185-.375 2.04 0c.855.375 1.05.73 1.46 1.45.59 1.01.68 2.02.28 3.01s-1.23 1.85-2.49 2.58l-4.16 2.41-6.44-11.12Zm4.91 3.04 1.37-.79c.64-.37 1.04-.74 1.22-1.1.17-.36.12-.77-.14-1.23-.25-.43-.58-.64-1-.65-.42 0-.97.19-1.64.58l-1.24.72zm1.08 1.87 1.68 2.9 1.54-.89c.65-.38 1.06-.78 1.22-1.21s.1-.9-.2-1.41c-.53-.92-1.46-1-2.78-.24zm20.96-6.91-2.53-1.96-3.82 2.71 1.01 3.03-2.39 1.7-3.77-13.15 2.72-1.93 11.18 7.89-2.39 1.7Zm-4.39-3.44c-2.31-1.76-3.61-2.76-3.91-2.99q-.45-.345-.69-.57c.28.72.9 2.56 1.87 5.5zm20.12-9.51-2.61 2.27-10.6-3.66-.06.05c1.21 1.22 2.06 2.11 2.54 2.66l3.97 4.56-1.84 1.6-8.44-9.69 2.59-2.26 10.53 3.59.05-.04q-1.74-1.8-2.43-2.58l-3.99-4.59L343 336l8.44 9.69Zm8.03-17.62c1.54 1.45 2.31 2.99 2.31 4.64s-.78 3.3-2.34 4.96l-2.49 2.66-9.38-8.79 2.76-2.94c1.43-1.53 2.95-2.34 4.55-2.43s3.13.54 4.58 1.9Zm-1.88 2.11c-2.01-1.89-3.85-1.94-5.52-.16l-.99 1.06 6.11 5.72.8-.85q2.685-2.88-.39-5.76Zm13.22-16.26q2.535 1.935 2.94 4.23c.27 1.53-.2 3.08-1.39 4.64-1.2 1.56-2.57 2.42-4.11 2.56-1.55.15-3.17-.43-4.87-1.73s-2.68-2.71-2.93-4.23c-.25-1.53.22-3.07 1.42-4.64s2.57-2.42 4.1-2.57c1.54-.14 3.16.44 4.85 1.73Zm-5.69 7.46c1.14.87 2.17 1.31 3.07 1.32s1.69-.42 2.35-1.28c1.32-1.73.83-3.47-1.46-5.22-2.3-1.76-4.11-1.78-5.42-.06-.66.86-.86 1.73-.62 2.61.25.88.94 1.76 2.08 2.63m20.77-19.21-1.8 2.96-11.21-.29-.04.07c1.52.8 2.6 1.39 3.22 1.77l5.16 3.15-1.27 2.08-10.97-6.69 1.79-2.93 11.12.24.03-.05c-1.47-.79-2.5-1.37-3.09-1.73l-5.19-3.17 1.28-2.09 10.97 6.69Zm6.02-11.76-10.45-1.44-.03.07c1.91.76 3.17 1.29 3.79 1.58l5.42 2.51-1.02 2.21-11.66-5.41 1.56-3.36 10.19 1.38.02-.05-7.56-7.06 1.56-3.36 11.66 5.41-1.07 2.3-5.52-2.56c-.26-.12-.56-.26-.9-.43s-1.22-.62-2.66-1.36l-.03.07 7.74 7.24-1.05 2.26Zm8.64-21.71-2.43 6.99-12.14-4.21 2.43-6.99 2.11.73-1.53 4.42 2.67.92 1.43-4.11 2.11.73-1.43 4.11 3.13 1.09 1.53-4.42 2.13.74Zm4.8-17.85-.83 3.36-10.77 3.11-.02.08c1.69.3 2.9.54 3.61.71l5.87 1.44-.58 2.37-12.48-3.06.82-3.34 10.68-3.13v-.06c-1.63-.31-2.79-.55-3.46-.72l-5.91-1.45.58-2.38 12.48 3.06Zm2.09-12.42-.4 2.7-10.47-1.54-.51 3.45-2.24-.33 1.42-9.6 2.24.33-.51 3.45z" class="cls-4"/></g><g><path d="m37.11 188.46.85-5.87 18.49-1.98v-.08l-17.82-2.58.6-4.17 29.79 4.3-.69 4.81-22.56 2.48v.08l21.73 3.14-.6 4.17zm5.03-27.39 1.69-6.18 30.33 3.23-1.25 4.56-5.99-.75.08.02-1.42 5.18 5.45 2.39-1.16 4.23-27.74-12.69Zm20.77.35L48 159.52l-.02.08 13.8 5.92 1.13-4.11ZM52.4 142.83l-1.8 4.61-4.01-1.57 5.32-13.62 4.01 1.57-1.8 4.61 24.03 9.39-1.72 4.41-24.03-9.39Zm2.69-17.2 2.11-4.23 26.95 13.42-2.11 4.23zm25.5.46-13.44-8.35c-4.09-2.54-5.09-6.15-2.64-10.09 2.45-3.95 6.13-4.65 10.22-2.11l13.44 8.35c4.09 2.54 5.09 6.15 2.64 10.09-2.45 3.95-6.13 4.65-10.22 2.11Zm5.34-8.03-13.95-8.67c-1.83-1.13-3.02-.76-3.81.52s-.6 2.51 1.23 3.65l13.95 8.67c1.83 1.13 3.02.76 3.81-.52s.6-2.51-1.23-3.65ZM73.89 94.38l3.73-4.62 16.91 7.74.05-.07-14.02-11.32 2.65-3.28 23.42 18.91-3.05 3.78-20.66-9.38-.05.07 17.1 13.8-2.65 3.28L73.9 94.38Zm18.3-20.98 4.61-4.45 24.45 18.23-3.4 3.29-4.77-3.7.06.06-3.86 3.74 3.48 4.83-3.15 3.05-17.4-25.05Zm17.7 10.88-11.86-9.23-.06.06 8.86 12.13zm-3.51-23.79 3.75-2.89 15.74 20.44 6.17-4.75 2.62 3.41-9.92 7.63-18.36-23.85Zm36.05 2.74-.81-1.52 3.95-2.1.97 1.82c1.01 1.9 2.21 2.14 3.54 1.43s1.8-1.83.75-3.81c-1.17-2.2-2.75-3.17-6.75-4.11-5.13-1.22-7.42-2.78-9.03-5.82-2.22-4.18-1.34-7.76 2.72-9.91 4.06-2.16 7.37-.79 9.62 3.46l.58 1.1-3.95 2.1-.73-1.37c-1.01-1.9-2.15-2.22-3.48-1.51s-1.71 1.83-.74 3.65c1.03 1.94 2.65 2.88 6.65 3.82 5.13 1.22 7.36 2.76 9.11 6.07 2.3 4.33 1.39 7.93-2.72 10.11-4.1 2.18-7.44.83-9.7-3.42Zm12.65-31.67 5.97-2.32 15.48 26.27-4.41 1.72-2.97-5.26.03.08-5.01 1.95 1.33 5.8-4.09 1.59-6.35-29.83Zm12.11 16.88-7.36-13.1-.08.03 3.47 14.61zm6-23.29 12.1-3.18 1.09 4.16-7.53 1.98 2.13 8.11 5.9-1.55 1.09 4.16-5.9 1.55 3.34 12.68-4.57 1.2-7.66-29.11Zm19.75-4.72 12.76-1.91.64 4.25-8.08 1.21 1.18 7.87 6.42-.96.64 4.25-6.42.96 1.37 9.14 8.08-1.21.64 4.25-12.76 1.91-4.45-29.77Zm32.43-3.13 4.73.13-.33 12.25 5.07.14.33-12.25 4.73.13-.81 30.09-4.73-.13.37-13.54-5.07-.14-.37 13.54-4.73-.13zm27.47 1.78 6.34.95.37 30.5-4.68-.7.04-6.04v.08l-5.33-.8-1.73 5.7-4.34-.65 9.32-29.04Zm2.11 20.67.13-15.03H255l-4.25 14.39 4.21.63Zm14.36-17.87 4.61 1.23-3.02 23.36.08.02 9.01-21.76 4.2 1.12-12.16 27.91-6.07-1.62zm22.39 6.53 12.01 4.72-1.57 4-7.6-2.99-2.91 7.4 6.04 2.38-1.57 4-6.04-2.38-3.38 8.6 7.6 2.99-1.57 4-12.01-4.72 11.01-28.02Zm19.7 8.26 5.22 2.81-4.49 18.04.08.04 8.54-15.86 3.71 2-14.27 26.5-4.28-2.3 5.42-22.04-.08-.04-10.42 19.34-3.71-2 14.27-26.5Zm33.12 20.77 5 4.01L334.5 88l-3.69-2.96 3.07-5.2-.05.07-4.19-3.36-4.36 4.06-3.42-2.75 22.67-20.41Zm-8.58 18.93 7.67-12.92-.07-.05-10.92 10.31zm23.18-6.45 3.33 3.36-18.31 18.18 5.48 5.52-3.05 3.03-8.82-8.88 21.36-21.21Zm13.92 14.69L376 88.3l-20.11 16.15 4.87 6.07-3.35 2.69-7.83-9.76 23.47-18.84Zm11.98 15.73 2.63 3.93-25 16.76-2.63-3.93zm9.08 14.52 3.05 5.63-24.13 18.64-2.25-4.16 4.85-3.6-.08.04-2.56-4.73-5.59 2.05-2.09-3.86 28.8-10.02Zm-15.24 14.12 12.08-8.94-.04-.08-14.07 5.27 2.03 3.74Zm24.02 3.24 2.16 5.53-15.11 10.84.03.08 16.78-6.55 1.53 3.93L380.23 157l-1.77-4.53 18.4-13.28-.03-.08-20.47 7.99-1.53-3.93 28.04-10.95Zm-14.29 28.17 15.67-4c4.5-1.15 7.76.5 8.89 4.92s-.94 7.43-5.45 8.58l-3.08.79-1.11-4.33 3.38-.86c1.92-.49 2.47-1.61 2.12-2.98-.35-1.38-1.38-2.09-3.29-1.6l-16.29 4.16c-1.92.49-2.43 1.6-2.08 2.97.35 1.38 1.33 2.1 3.25 1.61l4.46-1.14 1.11 4.33-4.12 1.05c-4.5 1.15-7.76-.5-8.89-4.92s.94-7.43 5.44-8.58Zm27.43 16.12 1.75 12.78-4.26.58-1.11-8.09-7.88 1.08.88 6.43-4.26.58-.88-6.43-9.16 1.25 1.11 8.09-4.26.58-1.75-12.78 29.82-4.08Z" style="stroke-miterlimit:10;fill:#000;stroke:#000;stroke-width:.5px"/></g><path d="M0 210.25h101m251.5 0h101" class="cls-1"/></g></svg>