<svg width="19" height="19" viewBox="0 0 19 19" fill="none" xmlns="http://www.w3.org/2000/svg">
<path opacity="0.77" d="M17.7344 1.05859C18.4727 1.23438 19 1.90234 19 2.64062C19 11.2891 11.9688 18.25 3.35547 18.25C2.61719 18.25 1.94922 17.7578 1.77344 17.0195L1.03516 13.7148C0.859375 12.9414 1.24609 12.168 1.94922 11.8516L5.53516 10.3398C6.16797 10.0586 6.94141 10.2344 7.39844 10.7969L8.55859 12.2031C10.3867 11.1836 11.9336 9.67188 12.918 7.84375L11.5117 6.68359C10.9492 6.22656 10.7734 5.45312 11.0547 4.82031L12.6016 1.23438C12.8828 0.53125 13.6562 0.144531 14.4297 0.320312L17.7344 1.05859ZM3.42578 16.5625C11.0547 16.5273 17.2773 10.3398 17.3125 2.71094L14.1133 1.97266L12.6367 5.41797L15.0273 7.38672C13.375 10.8672 11.582 12.6602 8.10156 14.3125L6.13281 11.9219L2.6875 13.3984L3.42578 16.5625Z" fill="#2C3542"/>
</svg>
