<?xml version="1.0" encoding="UTF-8"?>
<svg id="Layer_2" data-name="Layer 2" xmlns="http://www.w3.org/2000/svg" viewBox="0 0 243.36 243.36">
  <defs>
    <style>
      .cls-1 {
        fill: #221f20;
      }

      .cls-1, .cls-2, .cls-3, .cls-4 {
        stroke-width: 0px;
      }

      .cls-2 {
        fill: #69c9d0;
      }

      .cls-3 {
        fill: #fff;
      }

      .cls-4 {
        fill: #ee1d52;
      }
    </style>
  </defs>
  <g id="Calque_1" data-name="Calque 1">
    <g>
      <rect class="cls-1" x="0" y="0" width="243.36" height="243.36" rx="121.68" ry="121.68"/>
      <g>
        <path class="cls-4" d="m63.59,174.67l.46,1.33c-.06-.14-.23-.61-.46-1.33Zm18.79-30.36c.84-7.21,3.68-11.23,9-15.37,7.64-5.59,17.16-2.43,17.16-2.43v-18.79c2.32-.06,4.63.09,6.92.43v24.17s-9.52-3.15-17.16,2.43c-5.33,4.14-8.16,8.16-9,15.37-.03,3.91.67,9.03,3.91,13.43-.81-.43-1.62-.93-2.46-1.48-7.09-4.98-8.39-12.48-8.37-17.77Zm72.48-71.32c-5.24-5.99-7.24-12.07-7.96-16.32h6.6s-1.3,11.17,8.28,22.14l.14.14c-2.61-1.68-4.98-3.7-7.06-5.96h0Zm31.81,17.02v23.68s-8.42-.35-14.67-2c-8.71-2.32-14.3-5.88-14.3-5.88,0,0-3.88-2.55-4.17-2.72v48.92c0,2.72-.72,9.52-2.89,15.2-2.84,7.41-7.24,12.3-8.05,13.29,0,0-5.35,6.6-14.76,11.03-8.48,3.99-15.95,3.91-18.18,3.99,0,0-12.88.52-24.49-7.32-2.52-1.74-4.86-3.7-7-5.88l.06.06c11.61,7.87,24.49,7.32,24.49,7.32,2.23-.09,9.7,0,18.18-3.99,9.41-4.43,14.76-11.03,14.76-11.03.81-.98,5.21-5.88,8.05-13.29,2.17-5.67,2.89-12.48,2.89-15.2v-48.89c.32.17,4.17,2.72,4.17,2.72,0,0,5.59,3.56,14.3,5.88,6.25,1.65,14.67,2,14.67,2v-18.55c2.89.67,5.35.84,6.95.67Z"/>
        <path class="cls-3" d="m179.72,89.31v18.55s-8.42-.35-14.67-2c-8.71-2.32-14.3-5.88-14.3-5.88,0,0-3.88-2.55-4.17-2.72v48.92c0,2.72-.72,9.52-2.89,15.2-2.84,7.41-7.24,12.3-8.05,13.29,0,0-5.35,6.6-14.76,11.03-8.48,3.99-15.95,3.91-18.18,3.99,0,0-12.88.52-24.49-7.32l-.06-.06c-1.22-1.24-2.37-2.55-3.44-3.91-3.7-4.72-5.96-10.28-6.54-11.87v-.03c-.93-2.75-2.84-9.41-2.58-15.8.46-11.32,4.28-18.29,5.3-20.03,2.66-4.75,6.17-9,10.28-12.56,3.65-3.07,7.79-5.53,12.21-7.24,4.8-2.03,9.96-3.1,15.17-3.18v18.79s-9.52-3.15-17.16,2.43c-5.33,4.14-8.16,8.16-9,15.37-.03,5.3,1.27,12.79,8.39,17.8.84.55,1.65,1.04,2.46,1.48,1.24,1.68,2.75,3.15,4.49,4.37,6.98,4.6,12.79,4.92,20.26,1.94,4.98-2,8.71-6.48,10.45-11.49,1.1-3.13,1.07-6.25,1.07-9.49V56.66h17.37c.72,4.25,2.69,10.33,7.96,16.32,2.11,2.26,4.49,4.28,7.06,5.96.75.84,4.66,4.89,9.7,7.41,2.58,1.3,5.33,2.29,8.13,2.95h0Z"/>
        <g>
          <path class="cls-2" d="m61.25,160.81l.43,1.24c-.06-.14-.23-.58-.43-1.24Z"/>
          <path class="cls-2" d="m93.38,110.91c-4.46,1.71-8.57,4.17-12.21,7.24-4.14,3.56-7.61,7.84-10.28,12.59-1.01,1.74-4.83,8.68-5.3,20.03-.26,6.43,1.68,13.05,2.58,15.8v.03c.58,1.56,2.84,7.15,6.54,11.87,1.07,1.36,2.23,2.66,3.44,3.91-3.94-2.72-7.41-5.99-10.39-9.73-3.68-4.66-5.93-10.19-6.51-11.81v-.06c-.93-2.75-2.87-9.41-2.58-15.83.46-11.32,4.28-18.29,5.3-20.03,2.66-4.75,6.14-9.03,10.28-12.59,3.65-3.07,7.79-5.53,12.21-7.24,2.78-1.16,5.67-2,8.63-2.55,4.46-.78,9-.84,13.49-.2v5.38c-5.24.09-10.39,1.16-15.2,3.18h0Z"/>
          <path class="cls-2" d="m146.9,56.66h-17.37v92.22c0,3.24,0,6.37-1.07,9.49-1.77,4.98-5.5,9.49-10.45,11.49-7.47,3.01-13.31,2.66-20.26-1.94-1.74-1.19-3.24-2.66-4.49-4.34,5.93,3.15,11.23,3.1,17.8.46,4.98-2,8.71-6.51,10.45-11.49,1.1-3.13,1.07-6.25,1.07-9.49V50.85h24s-.29,2.29.32,5.82Zm32.82,27.53v5.12c-2.81-.67-5.56-1.65-8.13-2.95-5.01-2.49-8.91-6.57-9.7-7.41.9.58,1.79,1.1,2.75,1.59,6.14,3.04,12.13,3.97,15.08,3.65Z"/>
        </g>
      </g>
    </g>
  </g>
</svg>