<svg width="16" height="19" viewBox="0 0 16 19" fill="none" xmlns="http://www.w3.org/2000/svg">
<path opacity="0.77" d="M11.2539 10.9375C13.8555 10.9375 16 13.082 16 15.6836V16.5625C16 17.5117 15.2266 18.25 14.3125 18.25H1.9375C0.988281 18.25 0.25 17.5117 0.25 16.5625V15.6836C0.25 13.082 2.35938 10.9375 4.96094 10.9375C5.98047 10.9375 6.4375 11.5 8.125 11.5C9.77734 11.5 10.2344 10.9375 11.2539 10.9375ZM14.3125 16.5625V15.6836C14.3125 13.9961 12.9414 12.625 11.2539 12.625C10.7266 12.625 9.91797 13.1875 8.125 13.1875C6.29688 13.1875 5.48828 12.625 4.96094 12.625C3.27344 12.625 1.9375 13.9961 1.9375 15.6836V16.5625H14.3125ZM8.125 10.375C5.3125 10.375 3.0625 8.125 3.0625 5.3125C3.0625 2.53516 5.3125 0.25 8.125 0.25C10.9023 0.25 13.1875 2.53516 13.1875 5.3125C13.1875 8.125 10.9023 10.375 8.125 10.375ZM8.125 1.9375C6.26172 1.9375 4.75 3.48438 4.75 5.3125C4.75 7.17578 6.26172 8.6875 8.125 8.6875C9.95312 8.6875 11.5 7.17578 11.5 5.3125C11.5 3.48438 9.95312 1.9375 8.125 1.9375Z" fill="#2C3542"/>
</svg>
